<svg width="979.8447998046875px" height="103.39999999999999px" xmlns="http://www.w3.org/2000/svg" viewBox="-239.92239990234373 23.300000000000004 979.8447998046875 103.39999999999999" style="background: rgb(0, 0, 0);" preserveAspectRatio="xMidYMid"><defs><linearGradient id="editing-glowing-gradient" x1="0.5868240888334652" x2="0.41317591116653485" y1="0.9924038765061041" y2="0.00759612349389599"><stop offset="0" stop-color="#070303"></stop><stop offset="1" stop-color="#00e8ff"></stop></linearGradient><filter id="editing-glowing" x="-100%" y="-100%" width="300%" height="300%"><feGaussianBlur in="SourceGraphic" result="blur" stdDeviation="9.5"></feGaussianBlur><feMerge><feMergeNode in="blur"></feMergeNode><feMergeNode in="SourceGraphic"></feMergeNode></feMerge></filter></defs><g filter="url(#editing-glowing)"><g transform="translate(-99.91839051246643, 101.7249984741211)"><path d="M6.15 1.60L6.15 1.60L6.15 1.60Q4.90 1.60 3.79 1.02L3.79 1.02L3.79 1.02Q2.68 0.43 1.77-0.65L1.77-0.65L1.77-0.65Q-0.26-3.11-0.26-6.56L-0.26-6.56L-0.26-6.56Q-0.26-7.97 0.85-9.39L0.85-9.39L0.85-9.39Q1.96-10.81 4.50-11.96L4.50-11.96L4.50-11.96Q10.19-14.52 21.13-14.52L21.13-14.52L21.13-14.52Q21.13-14.52 41.15-30.05L41.15-30.05L41.15-30.05Q42.16-30.84 42.35-31.01L42.35-31.01L42.35-31.01Q42.66-31.34 43.15-31.34L43.15-31.34L43.15-31.34Q43.64-31.34 44.11-31.25L44.11-31.25L44.11-31.25Q44.57-31.15 44.96-30.98L44.96-30.98L44.96-30.98Q45.79-30.63 45.79-30.15L45.79-30.15L45.79-30.15Q45.79-29.81 45.63-29.62L45.63-29.62L31.94-14.59L37.78-14.59L37.78-14.59Q38.16-15.46 39.05-16.99L39.05-16.99L41.25-20.58L41.25-20.58Q42.54-22.63 43.78-24.45L43.78-24.45L46.20-27.80L46.20-27.80Q49.91-32.75 51.56-32.75L51.56-32.75L51.56-32.75Q51.73-32.75 52.86-32.31L52.86-32.31L52.86-32.31Q54.00-31.87 54.79-31.44L54.79-31.44L54.79-31.44Q56.70-30.43 56.70-29.55L56.70-29.55L56.70-29.55Q56.70-28.71 55.96-27.79L55.96-27.79L55.96-27.79Q55.22-26.87 54.40-25.62L54.40-25.62L54.40-25.62Q53.57-24.38 52.62-22.81L52.62-22.81L52.62-22.81Q51.68-21.25 50.72-19.49L50.72-19.49L50.72-19.49Q49.77-17.73 49-16.08L49-16.08L49-16.08Q47.25-12.32 47.25-10.99L47.25-10.99L47.25-10.99Q47.25-9.67 47.46-9.07L47.46-9.07L47.46-9.07Q47.66-8.47 47.95-8.18L47.95-8.18L47.95-8.18Q48.40-7.73 49.41-7.73L49.41-7.73L49.41-7.73Q50.41-7.73 51.45-8.10L51.45-8.10L51.45-8.10Q52.49-8.47 53.49-9.03L53.49-9.03L53.49-9.03Q54.48-9.59 55.44-10.25L55.44-10.25L55.44-10.25Q56.39-10.91 57.30-11.48L57.30-11.48L57.30-11.48Q59.41-12.78 60.41-12.78L60.41-12.78L60.41-12.78Q61.42-12.78 61.76-12.31L61.76-12.31L61.76-12.31Q62.11-11.84 62.11-11.10L62.11-11.10L62.11-11.10Q62.11-10.36 61.49-9.10L61.49-9.10L61.49-9.10Q60.87-7.85 59.74-6.51L59.74-6.51L59.74-6.51Q58.62-5.17 57.09-3.86L57.09-3.86L57.09-3.86Q55.56-2.56 53.74-1.53L53.74-1.53L53.74-1.53Q49.65 0.74 45.72 0.74L45.72 0.74L45.72 0.74Q42.18 0.74 39.48-1.75L39.48-1.75L39.48-1.75Q36.46-4.50 36.46-8.85L36.46-8.85L36.46-8.85Q36.46-9.07 36.46-9.28L36.46-9.28L36.46-9.28Q36.46-9.50 36.49-9.74L36.49-9.74L26.46-8.47L26.46-8.47Q22.23-4.31 16.22-1.34L16.22-1.34L16.22-1.34Q10.19 1.60 6.15 1.60ZM101.83-17.68L101.83-17.68L101.83-17.68Q102.90-17.68 102.90-16.58L102.90-16.58L102.90-16.58Q102.90-14.83 100.61-11.65L100.61-11.65L100.61-11.65Q99.00-9.43 94.00-5.48L94.00-5.48L94.00-5.48Q88.05-0.81 84.43-0.81L84.43-0.81L84.43-0.81Q81.71-0.81 80.32-3.11L80.32-3.11L80.32-3.11Q79.48-4.50 78.96-7.18L78.96-7.18L76.83-5.65L76.83-5.65Q68.04 0.43 63.71 0.43L63.71 0.43L63.71 0.43Q60.10 0.43 57.92-2.20L57.92-2.20L57.92-2.20Q56.01-4.57 56.01-7.87L56.01-7.87L56.01-7.87Q56.01-11.51 58.50-13.61L58.50-13.61L58.50-13.61Q63.57-17.87 71.11-20.62L71.11-20.62L71.11-20.62Q74.17-21.75 74.98-21.75L74.98-21.75L74.98-21.75Q75.80-21.75 76.48-21.47L76.48-21.47L76.48-21.47Q77.16-21.20 77.83-20.77L77.83-20.77L77.83-20.77Q79.41-19.69 79.41-18.69L79.41-18.69L79.41-18.69Q79.41-17.87 78.40-17.37L78.40-17.37L78.40-17.37Q78.09-17.20 77.35-16.92L77.35-16.92L77.35-16.92Q76.61-16.63 75.53-16.13L75.53-16.13L75.53-16.13Q72.64-14.76 69.89-12.82L69.89-12.82L69.89-12.82Q67.93-11.15 67.93-10.16L67.93-10.16L67.93-10.16Q67.93-9.16 69.31-9.16L69.31-9.16L69.31-9.16Q70.46-9.16 73.91-11.20L73.91-11.20L73.91-11.20Q73.91-11.20 75.94-12.44L75.94-12.44L75.94-12.44Q78.12-13.81 79.43-14.93L79.43-14.93L79.43-14.93Q79.43-14.93 80.53-18.52L80.53-18.52L80.53-18.52Q82.57-24.93 85.06-29.12L85.06-29.12L85.06-29.12Q89.46-37.56 93.91-37.56L93.91-37.56L93.91-37.56Q95.54-37.56 96.49-36.97L96.49-36.97L96.49-36.97Q98.22-35.89 98.22-34.58L98.22-34.58L98.22-34.58Q98.22-33.28 97.74-31.82L97.74-31.82L97.74-31.82Q97.26-30.36 96.48-28.93L96.48-28.93L96.48-28.93Q95.70-27.49 94.70-26.08L94.70-26.08L90.61-20.67L90.61-20.67Q89.58-19.36 88.79-18.11L88.79-18.11L88.79-18.11Q87.40-15.12 87.40-12.99L87.40-12.99L87.40-12.99Q87.40-9.93 89.63-9.93L89.63-9.93L89.63-9.93Q90.89-9.93 94.20-12.58L94.20-12.58L97.02-14.98L97.02-14.98Q99.00-16.75 100.94-17.47L100.94-17.47L100.94-17.47Q101.49-17.68 101.83-17.68ZM130.73-17.59L130.73-17.59L130.73-17.59Q131.88-17.59 131.88-16.29L131.88-16.29L131.88-16.29Q131.88-15.43 131.29-14.13L131.29-14.13L131.29-14.13Q130.71-12.82 129.61-11.69L129.61-11.69L129.61-11.69Q128.51-10.55 127.08-9.33L127.08-9.33L127.08-9.33Q125.66-8.11 123.76-6.77L123.76-6.77L123.76-6.77Q121.85-5.43 119.56-4.12L119.56-4.12L119.56-4.12Q117.26-2.80 114.68-1.75L114.68-1.75L114.68-1.75Q108.96 0.60 103.60 0.60L103.60 0.60L103.60 0.60Q99.51 0.60 96.44-1.53L96.44-1.53L96.44-1.53Q93.24-3.76 93.24-6.94L93.24-6.94L93.24-6.94Q93.24-11.94 98.62-16.44L98.62-16.44L98.62-16.44Q103.26-20.31 109.56-22.44L109.56-22.44L109.56-22.44Q113.38-23.73 116.04-23.73L116.04-23.73L116.04-23.73Q118.19-23.73 119.68-22.68L119.68-22.68L119.68-22.68Q121.26-21.53 121.26-19.60L121.26-19.60L121.26-19.60Q121.26-16.56 116.45-12.87L116.45-12.87L116.45-12.87Q115.68-12.27 115.06-11.87L115.06-11.87L114.20-11.29L114.20-11.29Q111.81-9.62 106.92-7.54L106.92-7.54L106.92-7.54Q108.43-6.75 109.74-6.75L109.74-6.75L109.74-6.75Q111.04-6.75 112.08-7.06L112.08-7.06L112.08-7.06Q113.12-7.37 114.44-7.94L114.44-7.94L114.44-7.94Q115.75-8.52 117.25-9.32L117.25-9.32L117.25-9.32Q118.74-10.12 120.27-11.08L120.27-11.08L120.27-11.08Q123.70-13.21 126.21-15.43L126.21-15.43L126.21-15.43Q127.52-16.65 129.56-17.37L129.56-17.37L129.56-17.37Q130.23-17.59 130.73-17.59ZM104.34-10.86L104.34-10.86L105.66-11.53L105.66-11.53Q106.30-11.87 106.80-12.15L106.80-12.15L106.80-12.15Q111.64-14.93 112.31-15.58L112.31-15.58L112.31-15.58Q112.98-16.22 112.98-16.47L112.98-16.47L112.98-16.47Q112.98-16.72 112.83-17.06L112.83-17.06L112.83-17.06Q112.69-17.39 112.45-17.66L112.45-17.66L112.45-17.66Q111.88-18.33 111.23-18.33L111.23-18.33L111.23-18.33Q110.58-18.33 109.81-18.09L109.81-18.09L109.81-18.09Q109.03-17.85 108.24-17.43L108.24-17.43L108.24-17.43Q107.45-17.01 106.72-16.43L106.72-16.43L106.72-16.43Q105.99-15.84 105.44-15.17L105.44-15.17L105.44-15.17Q104.17-13.66 104.17-12.56L104.17-12.56L104.17-12.56Q104.17-11.46 104.34-10.86ZM152.74-12.85L152.74-12.85L152.74-12.85Q152.74-10.67 154.01-10.67L154.01-10.67L154.01-10.67Q157.12-10.67 162.10-14.88L162.10-14.88L162.74-15.43L162.74-15.43Q164.68-16.72 165.89-16.72L165.89-16.72L165.89-16.72Q167.10-16.72 167.42-16.37L167.42-16.37L167.42-16.37Q167.74-16.01 167.74-15.22L167.74-15.22L167.74-15.22Q167.74-13.45 165.95-11.46L165.95-11.46L165.95-11.46Q163.27-8.21 158.60-5.29L158.60-5.29L158.60-5.29Q153.20-1.89 148.91-1.89L148.91-1.89L148.91-1.89Q145.92-1.89 145.16-5.22L145.16-5.22L145.16-5.22Q144.94-6.08 144.85-6.87L144.85-6.87L144.85-6.87Q144.61-8.78 144.34-9.00L144.34-9.00L144.34-9.00Q144.08-9.21 143.30-8.96L143.30-8.96L143.30-8.96Q142.53-8.71 141.46-8.12L141.46-8.12L141.46-8.12Q140.40-7.54 139.10-6.70L139.10-6.70L139.10-6.70Q132.26-2.15 131.23-1.51L131.23-1.51L131.23-1.51Q128.77 0.02 127.91 0.02L127.91 0.02L127.91 0.02Q127.05 0.02 126.22-0.33L126.22-0.33L126.22-0.33Q125.40-0.69 124.77-1.24L124.77-1.24L124.77-1.24Q123.48-2.46 123.48-3.73L123.48-3.73L123.48-3.73Q123.48-10.98 126.64-16.41L126.64-16.41L126.64-16.41Q128.74-20.07 131.81-21.49L131.81-21.49L131.81-21.49Q133.36-22.23 135.16-22.23L135.16-22.23L135.16-22.23Q138.43-22.23 138.43-20.07L138.43-20.07L138.43-20.07Q138.43-18.76 136.88-15.77L136.88-15.77L136.16-14.36L136.16-14.36Q135.40-12.90 135.42-12.70L135.42-12.70L135.42-12.70Q135.56-11.99 136.07-11.99L136.07-11.99L136.07-11.99Q136.62-11.99 137.69-12.80L137.69-12.80L142.10-16.08L144.30-17.61L144.30-17.61Q148.10-20.10 149.90-20.10L149.90-20.10L149.90-20.10Q150.85-20.10 151.64-19.33L151.64-19.33L151.64-19.33Q153.10-17.94 153.10-16.92L153.10-16.92L153.10-16.92Q153.10-16.58 153.04-16.10L153.04-16.10L153.04-16.10Q152.98-15.62 152.91-15.07L152.91-15.07L152.81-13.95L152.81-13.95Q152.74-13.37 152.74-12.85ZM186.12-20.17L186.12-20.17L186.12-20.17Q184.59-20.17 184.59-21.63L184.59-21.63L184.59-21.63Q184.59-22.30 185.28-24.06L185.28-24.06L185.28-24.06Q185.98-25.82 186.48-26.80L186.48-26.80L186.48-26.80Q187.63-29.09 188.82-29.98L188.82-29.98L188.82-29.98Q190.74-31.39 203.78-32.54L203.78-32.54L203.78-32.54Q209.45-33.02 212.03-33.02L212.03-33.02L212.03-33.02Q214.61-33.02 215.70-32.95L215.70-32.95L215.70-32.95Q216.79-32.87 217.96-32.69L217.96-32.69L217.96-32.69Q219.14-32.52 220.31-32.24L220.31-32.24L220.31-32.24Q221.48-31.96 222.53-31.56L222.53-31.56L222.53-31.56Q224.81-30.67 225.72-29.36L225.72-29.36L225.72-29.36Q228.56-25.22 228.56-22.61L228.56-22.61L228.56-22.61Q228.56-19.69 224.11-16.89L224.11-16.89L224.11-16.89Q222.77-16.03 221.24-15.17L221.24-15.17L221.24-15.17Q215.67-12.15 214.71-11.60L214.71-11.60L214.71-11.60Q216.72-7.70 222.58-3.54L222.58-3.54L222.58-3.54Q223.28-3.06 223.68-2.82L223.68-2.82L223.68-2.82Q225.48-1.77 227.92-3.16L227.92-3.16L227.92-3.16Q228.59-3.56 229.28-3.56L229.28-3.56L229.28-3.56Q229.97-3.56 230.50-3.05L230.50-3.05L230.50-3.05Q231.03-2.54 231.03-1.91L231.03-1.91L231.03-1.91Q231.03 0.93 227.22 4.21L227.22 4.21L227.22 4.21Q224.40 6.65 222.13 6.65L222.13 6.65L222.13 6.65Q220.28 6.65 214.11 1.24L214.11 1.24L214.11 1.24Q210.62-1.82 208.44-4.23L208.44-4.23L208.44-4.23Q206.26-6.65 205.45-7.84L205.45-7.84L205.45-7.84Q204.64-9.02 204.64-9.88L204.64-9.88L204.64-9.88Q204.64-10.74 205.06-11.41L205.06-11.41L205.06-11.41Q205.47-12.08 206.19-12.70L206.19-12.70L206.19-12.70Q207.32-13.66 209.40-14.75L209.40-14.75L209.40-14.75Q211.48-15.84 212.80-16.82L212.80-16.82L212.80-16.82Q214.11-17.80 215.07-18.85L215.07-18.85L215.07-18.85Q217.17-21.08 217.17-22.87L217.17-22.87L217.17-22.87Q217.17-24.05 216.46-24.83L216.46-24.83L216.46-24.83Q215.14-26.25 214.02-26.25L214.02-26.25L214.02-26.25Q212.08-26.25 209.28-25.98L209.28-25.98L206.36-20.82L206.36-20.82Q200.79-10.69 198.75-2.58L198.75-2.58L198.75-2.58Q197.94 0.57 192.60 0.57L192.60 0.57L192.60 0.57Q188.20 0.57 186.98-1.48L186.98-1.48L186.98-1.48Q186.57-2.18 186.68-2.84L186.68-2.84L186.68-2.84Q186.79-3.49 187.31-4.56L187.31-4.56L187.31-4.56Q187.84-5.62 188.75-7.23L188.75-7.23L190.88-10.86L193.49-15.15L196.43-19.76L199.49-24.36L199.49-24.36Q191.14-22.56 187.31-20.48L187.31-20.48L187.31-20.48Q186.74-20.17 186.12-20.17ZM273.42-17.97L273.42-17.97L273.42-17.97Q274.19-17.97 274.19-16.68L274.19-16.68L274.19-16.68Q274.19-14.45 271.08-10.91L271.08-10.91L269.72-9.52L269.72-9.52Q263.52-3.33 258.04-1.27L258.04-1.27L258.04-1.27Q254.64 0 253.16-1.39L253.16-1.39L253.16-1.39Q251.94-2.56 251.22-5.17L251.22-5.17L250.65-7.25L245.55-4.12L242.61-2.44L242.61-2.44Q237.34 0.43 234.71 0.43L234.71 0.43L234.71 0.43Q231.34 0.43 229.09-2.18L229.09-2.18L229.09-2.18Q226.94-4.64 226.94-7.90L226.94-7.90L226.94-7.90Q226.94-11.10 229.50-13.61L229.50-13.61L229.50-13.61Q233.16-17.20 241.05-20.19L241.05-20.19L241.05-20.19Q248.52-22.99 253.11-22.99L253.11-22.99L253.11-22.99Q254.67-22.99 254.67-21.46L254.67-21.46L254.67-21.46Q254.67-20.41 254.26-19.88L254.26-19.88L254.26-19.88Q253.85-19.36 252.58-18.81L252.58-18.81L249.57-17.51L249.57-17.51Q242.87-14.71 239.76-11.70L239.76-11.70L239.76-11.70Q238.88-10.86 238.88-10.07L238.88-10.07L238.88-10.07Q238.88-9.28 240.14-9.28L240.14-9.28L240.14-9.28Q241.39-9.28 245.93-11.96L245.93-11.96L247.92-13.14L247.92-13.14Q252.54-15.91 255.65-15.91L255.65-15.91L255.65-15.91Q258.28-15.91 259.14-13.59L259.14-13.59L259.14-13.59Q259.36-12.97 259.55-12.33L259.55-12.33L259.55-12.33Q259.74-11.70 259.93-11.20L259.93-11.20L259.93-11.20Q260.36-10.02 260.71-10.02L260.71-10.02L260.71-10.02Q261.05-10.02 261.70-10.37L261.70-10.37L261.70-10.37Q262.35-10.72 263.12-11.26L263.12-11.26L263.12-11.26Q263.90-11.80 264.74-12.44L264.74-12.44L267.63-14.76L267.63-14.76Q271.49-17.97 273.42-17.97ZM282.19-15.93L282.19-15.93L282.19-15.93Q280.58-15.07 279.12-14.04L279.12-14.04L279.12-14.04Q277.66-13.02 276.53-11.94L276.53-11.94L276.53-11.94Q275.41-10.86 275.41-10.07L275.41-10.07L275.41-10.07Q275.41-9.28 276.68-9.28L276.68-9.28L276.68-9.28Q277.56-9.28 279.26-10.14L279.26-10.14L284.45-12.90L284.45-12.90Q285.89-13.64 287.01-14.64L287.01-14.64L288.71-16.13L288.71-16.13Q290.53-17.78 292.52-17.78L292.52-17.78L292.52-17.78Q293.55-17.78 294.57-16.63L294.57-16.63L294.57-16.63Q295.60-15.48 295.60-14.28L295.60-14.28L295.60-14.28Q295.60-11.53 293.35-6.15L293.35-6.15L297.18-9.28L305.08-15.43L305.08-15.43Q306.35-16.39 307.18-16.39L307.18-16.39L307.18-16.39Q309.00-16.39 309.00-14.64L309.00-14.64L309.00-14.64Q309.00-12.85 306.66-10.02L306.66-10.02L306.66-10.02Q305.56-8.69 303.59-7.13L303.59-7.13L290.34 2.92L290.34 2.92Q289.02 3.97 288.26 4.67L288.26 4.67L288.26 4.67Q285.10 9.76 282.18 12.06L282.18 12.06L282.18 12.06Q277.95 15.41 274.33 15.41L274.33 15.41L274.33 15.41Q272.71 15.41 271.68 14.50L271.68 14.50L271.68 14.50Q270.74 13.71 270.74 12.66L270.74 12.66L270.74 12.66Q270.74 11.68 271.27 10.54L271.27 10.54L271.27 10.54Q271.80 9.40 272.68 8.25L272.68 8.25L272.68 8.25Q273.57 7.11 274.69 5.98L274.69 5.98L274.69 5.98Q275.82 4.86 277.08 3.80L277.08 3.80L277.08 3.80Q280.43 1.15 281.85 0.14L281.85 0.14L284.19-1.56L284.19-1.56Q285.58-4.50 286.58-7.92L286.58-7.92L286.58-7.92Q281.97-3.85 276.75-1.53L276.75-1.53L276.75-1.53Q274.14-0.36 272.42-0.36L272.42-0.36L272.42-0.36Q270.70-0.36 269.26-1.08L269.26-1.08L269.26-1.08Q267.83-1.79 266.80-2.97L266.80-2.97L266.80-2.97Q264.67-5.43 264.67-8.69L264.67-8.69L264.67-8.69Q264.67-12.08 267.23-14.40L267.23-14.40L267.23-14.40Q271.08-17.90 278.14-20.48L278.14-20.48L278.14-20.48Q284.93-22.99 289.65-22.99L289.65-22.99L289.65-22.99Q291.20-22.99 291.20-21.46L291.20-21.46L291.20-21.46Q291.20-20.41 290.81-19.85L290.81-19.85L290.81-19.85Q290.41-19.28 288.92-18.76L288.92-18.76L288.92-18.76Q287.42-18.23 285.61-17.51L285.61-17.51L285.61-17.51Q283.81-16.80 282.19-15.93ZM325.87-27.67L325.87-27.67L325.87-27.67Q325.18-27.08 324.36-26.71L324.36-26.71L324.36-26.71Q323.55-26.34 322.54-26.34L322.54-26.34L322.54-26.34Q321.54-26.34 320.61-26.68L320.61-26.68L320.61-26.68Q319.67-27.01 318.98-27.61L318.98-27.61L318.98-27.61Q317.47-28.90 317.47-30.91L317.47-30.91L317.47-30.91Q317.47-34.00 322.64-35.51L322.64-35.51L322.64-35.51Q324.39-36.03 325.51-36.03L325.51-36.03L325.51-36.03Q326.63-36.03 327.20-35.78L327.20-35.78L327.20-35.78Q327.76-35.53 328.12-35.12L328.12-35.12L328.12-35.12Q328.84-34.31 328.84-33.46L328.84-33.46L328.84-33.46Q328.84-32.61 328.63-31.92L328.63-31.92L328.63-31.92Q328.43-31.22 328.05-30.48L328.05-30.48L328.05-30.48Q327.66-29.74 327.11-29.00L327.11-29.00L327.11-29.00Q326.56-28.26 325.87-27.67ZM319.84-1.33L319.84-1.33L319.84-1.33Q318.02-0.38 316.30 0.18L316.30 0.18L316.30 0.18Q314.58 0.74 312.91 0.74L312.91 0.74L312.91 0.74Q311.25 0.74 309.47-0.06L309.47-0.06L309.47-0.06Q307.69-0.86 306.30-2.20L306.30-2.20L306.30-2.20Q303.21-5.19 303.21-8.85L303.21-8.85L303.21-8.85Q303.21-12.23 305.22-15.70L305.22-15.70L305.22-15.70Q307.06-18.83 309.91-20.96L309.91-20.96L309.91-20.96Q312.76-23.09 315.20-23.09L315.20-23.09L315.20-23.09Q318.69-23.09 318.93-21.13L318.93-21.13L318.93-21.13Q319.00-20.53 319.00-19.74L319.00-19.74L319.00-19.74Q319.00-18.95 318.63-17.93L318.63-17.93L318.63-17.93Q318.26-16.92 317.67-15.90L317.67-15.90L317.67-15.90Q317.09-14.88 316.38-13.91L316.38-13.91L316.38-13.91Q315.68-12.94 315.03-12.15L315.03-12.15L315.03-12.15Q313.79-10.65 313.04-9.98L313.04-9.98L313.04-9.98Q313.04-9.16 314.27-8.30L314.27-8.30L314.27-8.30Q315.41-7.49 316.22-7.49L316.22-7.49L316.22-7.49Q317.02-7.49 318.11-7.87L318.11-7.87L318.11-7.87Q319.19-8.25 320.35-8.90L320.35-8.90L320.35-8.90Q321.51-9.55 322.72-10.38L322.72-10.38L322.72-10.38Q323.93-11.22 325.10-12.11L325.10-12.11L329.48-15.53L329.48-15.53Q332.09-17.42 333.72-17.42L333.72-17.42L333.72-17.42Q334.36-17.42 334.71-16.95L334.71-16.95L334.71-16.95Q335.06-16.48 335.06-15.86L335.06-15.86L335.06-15.86Q335.06-15.24 334.43-14.15L334.43-14.15L334.43-14.15Q333.81-13.06 332.72-11.75L332.72-11.75L332.72-11.75Q331.64-10.43 330.18-9.00L330.18-9.00L330.18-9.00Q328.72-7.56 327.02-6.17L327.02-6.17L327.02-6.17Q325.32-4.79 323.49-3.53L323.49-3.53L323.49-3.53Q321.66-2.27 319.84-1.33ZM357.79-16.89L357.79-16.89L357.79-16.89Q359.32-16.89 359.32-15.62L359.32-15.62L359.32-15.62Q359.32-14.07 357.45-11.92L357.45-11.92L357.45-11.92Q354.36-8.33 350.18-4.93L350.18-4.93L350.18-4.93Q343.36 0.53 338.00 0.53L338.00 0.53L338.00 0.53Q334.15 0.53 331.68-2.82L331.68-2.82L331.68-2.82Q329.12-6.32 329.12-12.20L329.12-12.20L329.12-12.20Q329.12-19.93 336.66-29.29L336.66-29.29L336.66-29.29Q341.44-35.24 345.68-37.37L345.68-37.37L345.68-37.37Q347.00-38.04 347.70-38.04L347.70-38.04L347.70-38.04Q348.41-38.04 348.99-37.81L348.99-37.81L348.99-37.81Q349.58-37.59 350.08-37.18L350.08-37.18L350.08-37.18Q351.25-36.20 351.25-34.81L351.25-34.81L351.25-34.81Q351.25-33.42 350.49-31.52L350.49-31.52L350.49-31.52Q349.72-29.62 348.26-27.47L348.26-27.47L348.26-27.47Q345.18-22.90 339.91-18.71L339.91-18.71L339.91-18.71Q338.55-16.10 338.55-12.44L338.55-12.44L338.55-12.44Q338.55-10.79 339.60-9.33L339.60-9.33L339.60-9.33Q340.68-7.87 341.97-7.87L341.97-7.87L341.97-7.87Q343.74-7.87 348.74-11.53L348.74-11.53L353.00-14.81L353.00-14.81Q355.61-16.89 357.79-16.89ZM417.55-5.81L417.55-5.81L417.60-7.44L417.60-7.44Q417.65-8.97 417.89-10.79L417.89-10.79L418.27-13.61L418.27-13.61Q418.39-14.62 418.51-15.43L418.51-15.43L418.51-15.43Q416.24-12.94 414.85-11.56L414.85-11.56L412.10-8.88L412.10-8.88Q402.86-0.24 401.09-0.24L401.09-0.24L401.09-0.24Q398.48-0.24 395.61-1.36L395.61-1.36L395.61-1.36Q394.06-1.99 393.84-2.66L393.84-2.66L393.84-2.66Q393.51-3.49 393.51-4.94L393.51-4.94L393.51-4.94Q393.51-6.39 393.60-7.61L393.60-7.61L393.60-7.61Q393.70-8.83 393.84-10.04L393.84-10.04L393.84-10.04Q393.99-11.25 394.14-12.36L394.14-12.36L394.14-12.36Q394.30-13.47 394.39-14.31L394.39-14.31L394.39-14.31Q394.63-16.20 394.49-16.20L394.49-16.20L385.59-5.26L385.59-5.26Q379.30 2.13 378.43 2.92L378.43 2.92L378.43 2.92Q376.59 4.59 374.37 4.59L374.37 4.59L374.37 4.59Q373.27 4.59 372.55 4.04L372.55 4.04L372.55 4.04Q371.83 3.49 371.83 2.68L371.83 2.68L371.83 2.68Q371.83 1.05 373.19-0.72L373.19-0.72L394.44-27.73L396.93-30.72L396.93-30.72Q401.38-35.96 402.77-35.96L402.77-35.96L402.77-35.96Q404.70-35.96 406.45-34.98L406.45-34.98L406.45-34.98Q408.01-34.12 408.22-33.30L408.22-33.30L408.22-33.30Q408.32-32.99 407.81-30.41L407.81-30.41L406.98-25.89L406.98-25.89Q405.57-18.33 405.57-16.14L405.57-16.14L405.57-16.14Q405.57-13.95 406.07-13.95L406.07-13.95L406.07-13.95Q407.70-13.95 412.34-19.28L412.34-19.28L420.09-28.57L420.09-28.57Q422.65-31.51 423.49-31.92L423.49-31.92L423.49-31.92Q423.73-32.04 424.18-32.04L424.18-32.04L424.18-32.04Q424.63-32.04 425.20-31.92L425.20-31.92L425.20-31.92Q425.76-31.80 426.35-31.61L426.35-31.61L426.35-31.61Q426.93-31.41 427.48-31.15L427.48-31.15L427.48-31.15Q428.03-30.89 428.46-30.60L428.46-30.60L428.46-30.60Q429.40-29.98 429.38-29.58L429.38-29.58L429.38-29.58Q429.37-29.19 429.18-27.89L429.18-27.89L429.18-27.89Q428.99-26.58 428.70-24.72L428.70-24.72L428.70-24.72Q426.72-12.35 426.63-10.36L426.63-10.36L426.63-10.36Q426.55-8.37 427.04-7.87L427.04-7.87L427.04-7.87Q427.53-7.37 428.49-7.37L428.49-7.37L428.49-7.37Q430.23-7.37 433.56-9.45L433.56-9.45L433.56-9.45Q435.81-10.86 437.28-10.86L437.28-10.86L437.28-10.86Q438.75-10.86 438.75-9.45L438.75-9.45L438.75-9.45Q438.75-7.99 437.17-5.91L437.17-5.91L437.17-5.91Q434.90-2.90 430.38-0.45L430.38-0.45L430.38-0.45Q426.57 1.58 423.15 1.58L423.15 1.58L423.15 1.58Q417.55 1.58 417.55-5.81ZM481.05-17.97L481.05-17.97L481.05-17.97Q481.82-17.97 481.82-16.68L481.82-16.68L481.82-16.68Q481.82-14.45 478.71-10.91L478.71-10.91L477.34-9.52L477.34-9.52Q471.15-3.33 465.67-1.27L465.67-1.27L465.67-1.27Q462.27 0 460.79-1.39L460.79-1.39L460.79-1.39Q459.57-2.56 458.85-5.17L458.85-5.17L458.27-7.25L453.18-4.12L450.24-2.44L450.24-2.44Q444.97 0.43 442.34 0.43L442.34 0.43L442.34 0.43Q438.97 0.43 436.72-2.18L436.72-2.18L436.72-2.18Q434.56-4.64 434.56-7.90L434.56-7.90L434.56-7.90Q434.56-11.10 437.12-13.61L437.12-13.61L437.12-13.61Q440.78-17.20 448.68-20.19L448.68-20.19L448.68-20.19Q456.15-22.99 460.74-22.99L460.74-22.99L460.74-22.99Q462.29-22.99 462.29-21.46L462.29-21.46L462.29-21.46Q462.29-20.41 461.89-19.88L461.89-19.88L461.89-19.88Q461.48-19.36 460.21-18.81L460.21-18.81L457.20-17.51L457.20-17.51Q450.50-14.71 447.39-11.70L447.39-11.70L447.39-11.70Q446.50-10.86 446.50-10.07L446.50-10.07L446.50-10.07Q446.50-9.28 447.77-9.28L447.77-9.28L447.77-9.28Q449.02-9.28 453.56-11.96L453.56-11.96L455.55-13.14L455.55-13.14Q460.16-15.91 463.27-15.91L463.27-15.91L463.27-15.91Q465.91-15.91 466.77-13.59L466.77-13.59L466.77-13.59Q466.98-12.97 467.17-12.33L467.17-12.33L467.17-12.33Q467.37-11.70 467.56-11.20L467.56-11.20L467.56-11.20Q467.99-10.02 468.34-10.02L468.34-10.02L468.34-10.02Q468.68-10.02 469.33-10.37L469.33-10.37L469.33-10.37Q469.97-10.72 470.75-11.26L470.75-11.26L470.75-11.26Q471.53-11.80 472.37-12.44L472.37-12.44L475.26-14.76L475.26-14.76Q479.11-17.97 481.05-17.97ZM491.27-23.30L491.27-23.30L491.27-23.30Q491.51-22.83 491.51-22.05L491.51-22.05L491.51-22.05Q491.51-21.27 490.72-20.29L490.72-20.29L490.72-20.29Q491.34-19.64 492.31-18.79L492.31-18.79L492.31-18.79Q493.28-17.94 494.19-16.94L494.19-16.94L494.19-16.94Q496.39-14.48 496.39-12.23L496.39-12.23L496.39-12.23Q496.39-10.74 494.35-8.61L494.35-8.61L494.35-8.61Q493.73-7.94 492.99-7.37L492.99-7.37L492.99-7.37Q495.48-8.33 498.97-11.17L498.97-11.17L501.77-13.47L501.77-13.47Q504.21-15.50 505.04-15.81L505.04-15.81L505.04-15.81Q505.86-16.13 506.53-16.13L506.53-16.13L506.53-16.13Q507.20-16.13 507.84-15.79L507.84-15.79L507.84-15.79Q508.47-15.46 508.47-14.70L508.47-14.70L508.47-14.70Q508.47-13.95 508.23-13.24L508.23-13.24L508.23-13.24Q507.99-12.54 507.66-11.94L507.66-11.94L507.66-11.94Q507.18-11.08 506.27-10.17L506.27-10.17L506.27-10.17Q503.76-7.80 501.40-5.83L501.40-5.83L501.40-5.83Q499.04-3.85 496.53-2.44L496.53-2.44L496.53-2.44Q491.22 0.53 484.76 0.53L484.76 0.53L484.76 0.53Q481.15 0.53 478.49-1.32L478.49-1.32L478.49-1.32Q477.39-2.08 476.80-2.91L476.80-2.91L476.80-2.91Q476.22-3.73 476.22-4.20L476.22-4.20L476.22-4.20Q476.22-4.67 476.53-5.18L476.53-5.18L476.53-5.18Q476.84-5.69 477.37-6.24L477.37-6.24L477.37-6.24Q477.89-6.79 478.58-7.35L478.58-7.35L478.58-7.35Q479.26-7.90 479.98-8.33L479.98-8.33L479.98-8.33Q481.65-9.31 482.48-9.31L482.48-9.31L482.48-9.31Q483.30-9.31 483.73-9.10L483.73-9.10L483.73-9.10Q484.16-8.90 484.52-8.66L484.52-8.66L484.52-8.66Q485.50-7.99 485.91-7.99L485.91-7.99L485.91-7.99Q486.89-7.99 486.89-9.33L486.89-9.33L486.89-9.33Q486.89-10.58 485.57-12.32L485.57-12.32L485.57-12.32Q485.05-13.04 484.47-13.73L484.47-13.73L484.47-13.73Q483.90-14.43 483.52-15.10L483.52-15.10L483.52-15.10Q482.75-14.21 481.60-13.28L481.60-13.28L479.28-11.32L479.28-11.32Q476.86-9.24 474.81-9.33L474.81-9.33L474.81-9.33Q473.61-9.43 473.61-11.99L473.61-11.99L473.61-11.99Q473.61-12.44 473.68-12.87L473.68-12.87L473.68-12.87Q473.80-13.61 475.14-14.67L475.14-14.67L475.14-14.67Q476.48-15.72 477.09-16.11L477.09-16.11L477.09-16.11Q477.70-16.51 478.13-16.82L478.13-16.82L480.67-18.54L480.67-18.54Q480.67-20.98 483.49-23.02L483.49-23.02L483.49-23.02Q486.17-24.93 488.80-24.93L488.80-24.93L488.80-24.93Q490.48-24.93 491.27-23.30ZM503.28-7.90L503.28-7.90L503.28-7.90Q502.82-7.90 502.38-8.11L502.38-8.11L502.38-8.11Q501.94-8.33 501.56-8.80L501.56-8.80L501.56-8.80Q500.72-9.86 500.72-11.68L500.72-11.68L500.72-11.68Q500.72-13.61 503.04-16.51L503.04-16.51L503.04-16.51Q505.29-19.31 508.28-21.34L508.28-21.34L508.28-21.34Q511.49-23.54 513.78-23.54L513.78-23.54L513.78-23.54Q515.82-23.54 516.53-22.39L516.53-22.39L516.87-21.87L516.87-21.87Q517.25-21.27 517.63-21.27L517.63-21.27L517.63-21.27Q518.02-21.27 518.83-21.34L518.83-21.34L522.23-21.58L522.23-21.58Q523.02-21.65 523.47-21.65L523.47-21.65L523.47-21.65Q523.93-21.65 524.51-21.33L524.51-21.33L524.51-21.33Q525.10-21.01 525.55-20.48L525.55-20.48L525.55-20.48Q526.56-19.28 526.56-17.85L526.56-17.85L526.56-17.85Q526.56-16.37 523.28-13.18L523.28-13.18L521.70-11.60L521.70-11.60Q520.00-9.86 520.00-9.40L520.00-9.40L520.00-9.40Q520.00-8.95 520.43-8.60L520.43-8.60L520.43-8.60Q520.86-8.25 521.37-8.25L521.37-8.25L521.37-8.25Q521.87-8.25 522.50-8.53L522.50-8.53L522.50-8.53Q523.14-8.80 524.07-9.34L524.07-9.34L524.07-9.34Q525.00-9.88 526.20-10.65L526.20-10.65L526.20-10.65Q529.48-12.80 530.58-13.61L530.58-13.61L532.56-15.03L532.56-15.03Q534.60-16.46 535.46-16.46L535.46-16.46L535.46-16.46Q536.32-16.46 536.87-16.09L536.87-16.09L536.87-16.09Q537.42-15.72 537.42-14.81L537.42-14.81L537.42-14.81Q537.42-13.90 536.49-12.37L536.49-12.37L536.49-12.37Q535.55-10.84 534.47-9.71L534.47-9.71L534.47-9.71Q533.38-8.59 532.35-7.63L532.35-7.63L532.35-7.63Q531.32-6.68 529.92-5.56L529.92-5.56L529.92-5.56Q528.52-4.45 526.82-3.31L526.82-3.31L526.82-3.31Q525.12-2.18 523.23-1.27L523.23-1.27L523.23-1.27Q518.95 0.81 515.36 0.81L515.36 0.81L515.36 0.81Q510.12 0.81 508.97-1.89L508.97-1.89L508.97-1.89Q508.61-2.70 508.61-3.71L508.61-3.71L508.61-3.71Q508.61-4.71 509.00-5.87L509.00-5.87L509.00-5.87Q509.38-7.03 510.00-8.18L510.00-8.18L510.00-8.18Q511.25-10.46 512.94-12.20L512.94-12.20L512.94-12.20Q514.38-13.71 514.38-14.00L514.38-14.00L514.38-14.00Q514.38-14.45 513.87-14.57L513.87-14.57L513.87-14.57Q513.35-14.69 512.35-14.69L512.35-14.69L512.35-14.69Q511.92-14.69 510.50-13.45L510.50-13.45L508.16-11.29L508.16-11.29Q504.43-7.90 503.28-7.90ZM566.13-17.59L566.13-17.59L566.13-17.59Q567.28-17.59 567.28-16.29L567.28-16.29L567.28-16.29Q567.28-15.43 566.69-14.13L566.69-14.13L566.69-14.13Q566.11-12.82 565.01-11.69L565.01-11.69L565.01-11.69Q563.91-10.55 562.48-9.33L562.48-9.33L562.48-9.33Q561.06-8.11 559.16-6.77L559.16-6.77L559.16-6.77Q557.26-5.43 554.96-4.12L554.96-4.12L554.96-4.12Q552.66-2.80 550.08-1.75L550.08-1.75L550.08-1.75Q544.36 0.60 539 0.60L539 0.60L539 0.60Q534.91 0.60 531.85-1.53L531.85-1.53L531.85-1.53Q528.64-3.76 528.64-6.94L528.64-6.94L528.64-6.94Q528.64-11.94 534.02-16.44L534.02-16.44L534.02-16.44Q538.67-20.31 544.96-22.44L544.96-22.44L544.96-22.44Q548.79-23.73 551.44-23.73L551.44-23.73L551.44-23.73Q553.59-23.73 555.08-22.68L555.08-22.68L555.08-22.68Q556.66-21.53 556.66-19.60L556.66-19.60L556.66-19.60Q556.66-16.56 551.85-12.87L551.85-12.87L551.85-12.87Q551.08-12.27 550.46-11.87L550.46-11.87L549.60-11.29L549.60-11.29Q547.21-9.62 542.33-7.54L542.33-7.54L542.33-7.54Q543.83-6.75 545.14-6.75L545.14-6.75L545.14-6.75Q546.44-6.75 547.48-7.06L547.48-7.06L547.48-7.06Q548.52-7.37 549.84-7.94L549.84-7.94L549.84-7.94Q551.15-8.52 552.65-9.32L552.65-9.32L552.65-9.32Q554.15-10.12 555.68-11.08L555.68-11.08L555.68-11.08Q559.10-13.21 561.61-15.43L561.61-15.43L561.61-15.43Q562.93-16.65 564.96-17.37L564.96-17.37L564.96-17.37Q565.63-17.59 566.13-17.59ZM539.74-10.86L539.74-10.86L541.06-11.53L541.06-11.53Q541.70-11.87 542.21-12.15L542.21-12.15L542.21-12.15Q547.04-14.93 547.71-15.58L547.71-15.58L547.71-15.58Q548.38-16.22 548.38-16.47L548.38-16.47L548.38-16.47Q548.38-16.72 548.24-17.06L548.24-17.06L548.24-17.06Q548.09-17.39 547.85-17.66L547.85-17.66L547.85-17.66Q547.28-18.33 546.63-18.33L546.63-18.33L546.63-18.33Q545.99-18.33 545.21-18.09L545.21-18.09L545.21-18.09Q544.43-17.85 543.64-17.43L543.64-17.43L543.64-17.43Q542.85-17.01 542.12-16.43L542.12-16.43L542.12-16.43Q541.39-15.84 540.84-15.17L540.84-15.17L540.84-15.17Q539.57-13.66 539.57-12.56L539.57-12.56L539.57-12.56Q539.57-11.46 539.74-10.86ZM588.14-12.85L588.14-12.85L588.14-12.85Q588.14-10.67 589.41-10.67L589.41-10.67L589.41-10.67Q592.52-10.67 597.50-14.88L597.50-14.88L598.14-15.43L598.14-15.43Q600.08-16.72 601.29-16.72L601.29-16.72L601.29-16.72Q602.50-16.72 602.82-16.37L602.82-16.37L602.82-16.37Q603.15-16.01 603.15-15.22L603.15-15.22L603.15-15.22Q603.15-13.45 601.35-11.46L601.35-11.46L601.35-11.46Q598.67-8.21 594.01-5.29L594.01-5.29L594.01-5.29Q588.60-1.89 584.32-1.89L584.32-1.89L584.32-1.89Q581.32-1.89 580.56-5.22L580.56-5.22L580.56-5.22Q580.34-6.08 580.25-6.87L580.25-6.87L580.25-6.87Q580.01-8.78 579.75-9.00L579.75-9.00L579.75-9.00Q579.48-9.21 578.70-8.96L578.70-8.96L578.70-8.96Q577.93-8.71 576.86-8.12L576.86-8.12L576.86-8.12Q575.80-7.54 574.51-6.70L574.51-6.70L574.51-6.70Q567.66-2.15 566.63-1.51L566.63-1.51L566.63-1.51Q564.17 0.02 563.31 0.02L563.31 0.02L563.31 0.02Q562.45 0.02 561.62-0.33L561.62-0.33L561.62-0.33Q560.80-0.69 560.17-1.24L560.17-1.24L560.17-1.24Q558.88-2.46 558.88-3.73L558.88-3.73L558.88-3.73Q558.88-10.98 562.04-16.41L562.04-16.41L562.04-16.41Q564.15-20.07 567.21-21.49L567.21-21.49L567.21-21.49Q568.76-22.23 570.56-22.23L570.56-22.23L570.56-22.23Q573.84-22.23 573.84-20.07L573.84-20.07L573.84-20.07Q573.84-18.76 572.28-15.77L572.28-15.77L571.56-14.36L571.56-14.36Q570.80-12.90 570.82-12.70L570.82-12.70L570.82-12.70Q570.96-11.99 571.47-11.99L571.47-11.99L571.47-11.99Q572.02-11.99 573.09-12.80L573.09-12.80L577.50-16.08L579.70-17.61L579.70-17.61Q583.50-20.10 585.30-20.10L585.30-20.10L585.30-20.10Q586.25-20.10 587.04-19.33L587.04-19.33L587.04-19.33Q588.50-17.94 588.50-16.92L588.50-16.92L588.50-16.92Q588.50-16.58 588.44-16.10L588.44-16.10L588.44-16.10Q588.38-15.62 588.31-15.07L588.31-15.07L588.22-13.95L588.22-13.95Q588.14-13.37 588.14-12.85ZM638.94-17.68L638.94-17.68L638.94-17.68Q640.01-17.68 640.01-16.58L640.01-16.58L640.01-16.58Q640.01-14.83 637.72-11.65L637.72-11.65L637.72-11.65Q636.11-9.43 631.11-5.48L631.11-5.48L631.11-5.48Q625.16-0.81 621.54-0.81L621.54-0.81L621.54-0.81Q618.82-0.81 617.43-3.11L617.43-3.11L617.43-3.11Q616.59-4.50 616.06-7.18L616.06-7.18L613.94-5.65L613.94-5.65Q605.15 0.43 600.82 0.43L600.82 0.43L600.82 0.43Q597.21 0.43 595.03-2.20L595.03-2.20L595.03-2.20Q593.12-4.57 593.12-7.87L593.12-7.87L593.12-7.87Q593.12-11.51 595.61-13.61L595.61-13.61L595.61-13.61Q600.68-17.87 608.22-20.62L608.22-20.62L608.22-20.62Q611.28-21.75 612.09-21.75L612.09-21.75L612.09-21.75Q612.91-21.75 613.59-21.47L613.59-21.47L613.59-21.47Q614.27-21.20 614.94-20.77L614.94-20.77L614.94-20.77Q616.52-19.69 616.52-18.69L616.52-18.69L616.52-18.69Q616.52-17.87 615.51-17.37L615.51-17.37L615.51-17.37Q615.20-17.20 614.46-16.92L614.46-16.92L614.46-16.92Q613.72-16.63 612.64-16.13L612.64-16.13L612.64-16.13Q609.75-14.76 607.00-12.82L607.00-12.82L607.00-12.82Q605.04-11.15 605.04-10.16L605.04-10.16L605.04-10.16Q605.04-9.16 606.42-9.16L606.42-9.16L606.42-9.16Q607.57-9.16 611.02-11.20L611.02-11.20L611.02-11.20Q611.02-11.20 613.05-12.44L613.05-12.44L613.05-12.44Q615.23-13.81 616.54-14.93L616.54-14.93L616.54-14.93Q616.54-14.93 617.64-18.52L617.64-18.52L617.64-18.52Q619.68-24.93 622.17-29.12L622.17-29.12L622.17-29.12Q626.57-37.56 631.02-37.56L631.02-37.56L631.02-37.56Q632.65-37.56 633.60-36.97L633.60-36.97L633.60-36.97Q635.33-35.89 635.33-34.58L635.33-34.58L635.33-34.58Q635.33-33.28 634.85-31.82L634.85-31.82L634.85-31.82Q634.37-30.36 633.59-28.93L633.59-28.93L633.59-28.93Q632.81-27.49 631.81-26.08L631.81-26.08L627.72-20.67L627.72-20.67Q626.69-19.36 625.90-18.11L625.90-18.11L625.90-18.11Q624.51-15.12 624.51-12.99L624.51-12.99L624.51-12.99Q624.51-9.93 626.74-9.93L626.74-9.93L626.74-9.93Q628.00-9.93 631.31-12.58L631.31-12.58L634.13-14.98L634.13-14.98Q636.11-16.75 638.05-17.47L638.05-17.47L638.05-17.47Q638.60-17.68 638.94-17.68ZM633.46-7.90L633.46-7.90L633.46-7.90Q633.00-7.90 632.56-8.11L632.56-8.11L632.56-8.11Q632.12-8.33 631.74-8.80L631.74-8.80L631.74-8.80Q630.90-9.86 630.90-11.68L630.90-11.68L630.90-11.68Q630.90-13.61 633.22-16.51L633.22-16.51L633.22-16.51Q635.47-19.31 638.46-21.34L638.46-21.34L638.46-21.34Q641.67-23.54 643.96-23.54L643.96-23.54L643.96-23.54Q646.00-23.54 646.71-22.39L646.71-22.39L647.05-21.87L647.05-21.87Q647.43-21.27 647.81-21.27L647.81-21.27L647.81-21.27Q648.20-21.27 649.01-21.34L649.01-21.34L652.41-21.58L652.41-21.58Q653.20-21.65 653.65-21.65L653.65-21.65L653.65-21.65Q654.11-21.65 654.69-21.33L654.69-21.33L654.69-21.33Q655.28-21.01 655.73-20.48L655.73-20.48L655.73-20.48Q656.74-19.28 656.74-17.85L656.74-17.85L656.74-17.85Q656.74-16.37 653.46-13.18L653.46-13.18L651.88-11.60L651.88-11.60Q650.18-9.86 650.18-9.40L650.18-9.40L650.18-9.40Q650.18-8.95 650.61-8.60L650.61-8.60L650.61-8.60Q651.04-8.25 651.55-8.25L651.55-8.25L651.55-8.25Q652.05-8.25 652.68-8.53L652.68-8.53L652.68-8.53Q653.32-8.80 654.25-9.34L654.25-9.34L654.25-9.34Q655.18-9.88 656.38-10.65L656.38-10.65L656.38-10.65Q659.66-12.80 660.76-13.61L660.76-13.61L662.74-15.03L662.74-15.03Q664.78-16.46 665.64-16.46L665.64-16.46L665.64-16.46Q666.50-16.46 667.05-16.09L667.05-16.09L667.05-16.09Q667.60-15.72 667.60-14.81L667.60-14.81L667.60-14.81Q667.60-13.90 666.67-12.37L666.67-12.37L666.67-12.37Q665.73-10.84 664.65-9.71L664.65-9.71L664.65-9.71Q663.56-8.59 662.53-7.63L662.53-7.63L662.53-7.63Q661.50-6.68 660.10-5.56L660.10-5.56L660.10-5.56Q658.70-4.45 657.00-3.31L657.00-3.31L657.00-3.31Q655.30-2.18 653.41-1.27L653.41-1.27L653.41-1.27Q649.13 0.81 645.54 0.81L645.54 0.81L645.54 0.81Q640.30 0.81 639.15-1.89L639.15-1.89L639.15-1.89Q638.79-2.70 638.79-3.71L638.79-3.71L638.79-3.71Q638.79-4.71 639.18-5.87L639.18-5.87L639.18-5.87Q639.56-7.03 640.18-8.18L640.18-8.18L640.18-8.18Q641.43-10.46 643.13-12.20L643.13-12.20L643.13-12.20Q644.56-13.71 644.56-14.00L644.56-14.00L644.56-14.00Q644.56-14.45 644.05-14.57L644.05-14.57L644.05-14.57Q643.53-14.69 642.53-14.69L642.53-14.69L642.53-14.69Q642.10-14.69 640.68-13.45L640.68-13.45L638.34-11.29L638.34-11.29Q634.61-7.90 633.46-7.90ZM704.78-17.97L704.78-17.97L704.78-17.97Q705.55-17.97 705.55-16.68L705.55-16.68L705.55-16.68Q705.55-14.45 702.44-10.91L702.44-10.91L701.07-9.52L701.07-9.52Q694.88-3.33 689.40-1.27L689.40-1.27L689.40-1.27Q686 0 684.52-1.39L684.52-1.39L684.52-1.39Q683.30-2.56 682.58-5.17L682.58-5.17L682.00-7.25L676.91-4.12L673.97-2.44L673.97-2.44Q668.70 0.43 666.07 0.43L666.07 0.43L666.07 0.43Q662.70 0.43 660.45-2.18L660.45-2.18L660.45-2.18Q658.29-4.64 658.29-7.90L658.29-7.90L658.29-7.90Q658.29-11.10 660.85-13.61L660.85-13.61L660.85-13.61Q664.51-17.20 672.41-20.19L672.41-20.19L672.41-20.19Q679.88-22.99 684.47-22.99L684.47-22.99L684.47-22.99Q686.02-22.99 686.02-21.46L686.02-21.46L686.02-21.46Q686.02-20.41 685.62-19.88L685.62-19.88L685.62-19.88Q685.21-19.36 683.94-18.81L683.94-18.81L680.93-17.51L680.93-17.51Q674.23-14.71 671.12-11.70L671.12-11.70L671.12-11.70Q670.23-10.86 670.23-10.07L670.23-10.07L670.23-10.07Q670.23-9.28 671.50-9.28L671.50-9.28L671.50-9.28Q672.75-9.28 677.29-11.96L677.29-11.96L679.28-13.14L679.28-13.14Q683.89-15.91 687.00-15.91L687.00-15.91L687.00-15.91Q689.64-15.91 690.50-13.59L690.50-13.59L690.50-13.59Q690.71-12.97 690.90-12.33L690.90-12.33L690.90-12.33Q691.10-11.70 691.29-11.20L691.29-11.20L691.29-11.20Q691.72-10.02 692.07-10.02L692.07-10.02L692.07-10.02Q692.41-10.02 693.06-10.37L693.06-10.37L693.06-10.37Q693.70-10.72 694.48-11.26L694.48-11.26L694.48-11.26Q695.26-11.80 696.10-12.44L696.10-12.44L698.99-14.76L698.99-14.76Q702.84-17.97 704.78-17.97Z" fill="url(#editing-glowing-gradient)"></path></g></g><style>text {
  font-size: 64px;
  font-family: Arial Black;
  dominant-baseline: central;
  text-anchor: middle;
}</style></svg>