<svg width="1078.319140625px" height="162.79999999999998px" xmlns="http://www.w3.org/2000/svg" viewBox="-289.1595703125 -6.3999999999999915 1078.319140625 162.79999999999998" style="background: rgb(21, 30, 47);" preserveAspectRatio="xMidYMid"><defs><linearGradient id="editing-glowing-gradient" x1="0.9667902132486008" x2="0.03320978675139913" y1="0.6791839747726502" y2="0.32081602522734975"><stop offset="0" stop-color="#2a3e83"></stop><stop offset="1" stop-color="#dad69f"></stop></linearGradient><filter id="editing-glowing" x="-100%" y="-100%" width="300%" height="300%"><feGaussianBlur in="SourceGraphic" result="blur" stdDeviation="6"></feGaussianBlur><feMerge><feMergeNode in="blur"></feMergeNode><feMergeNode in="SourceGraphic"></feMergeNode></feMerge></filter></defs><g filter="url(#editing-glowing)"><g transform="translate(-135.77315187454224, 114.9000015258789)"><path d="M82.15 7.48L82.15 7.48L82.15 7.48Q82.32 7.56 82.32 7.81L82.32 7.81L82.32 7.81Q82.15 8.40 81.65 8.06L81.65 8.06L81.65 8.06Q74.34 2.94 74.34-6.97L74.34-6.97L74.34-6.97Q74.34-11.09 75.98-15.75L75.98-15.75L75.98-15.75Q77.62-20.41 81.82-26.96L81.82-26.96L81.82-26.96Q86.02-33.52 89.96-38.30L89.96-38.30L89.96-38.30Q93.91-43.09 97.57-47.25L97.57-47.25L97.57-47.25Q101.22-51.41 101.39-51.74L101.39-51.74L101.39-51.74Q102.40-53.26 102.73-51.41L102.73-51.41L102.73-51.41Q102.82-50.82 102.82-50.06L102.82-50.06L102.82-50.06Q102.82-49.31 102.40-48.72L102.40-48.72L102.40-48.72Q97.19-42.34 92.32-34.27L92.32-34.27L92.32-34.27Q84.17-20.66 80.64-9.49L80.64-9.49L80.64-9.49Q79.30-5.04 79.30-0.25L79.30-0.25L79.30-0.25Q79.30 4.54 82.15 7.48ZM12.26-21.92L12.26-21.92L12.26-21.92Q26.04-27.64 45.44-27.64L45.44-27.64L45.44-27.64Q55.02-27.64 64.60-24.61L64.60-24.61L64.60-24.61Q66.86-26.96 71.32-31.63L71.32-31.63L71.32-31.63Q75.77-36.29 78.37-38.98L78.37-38.98L78.37-38.98Q85.93-46.79 90.72-50.48L90.72-50.48L90.72-50.48Q98.78-56.78 105.50-56.78L105.50-56.78L105.50-56.78Q108.53-56.78 111.05-55.82L111.05-55.82L111.05-55.82Q113.57-54.85 114.07-54.31L114.07-54.31L114.07-54.31Q114.58-53.76 114.58-53.68L114.58-53.68L114.58-53.68Q114.58-53.59 114.41-53.38L114.41-53.38L114.41-53.38Q114.24-53.17 113.90-53.59L113.90-53.59L113.90-53.59Q112.31-55.10 107.69-55.10L107.69-55.10L107.69-55.10Q99.88-55.10 91.22-48.30L91.22-48.30L91.22-48.30Q85.01-43.26 80.89-39.10L80.89-39.10L80.89-39.10Q76.78-34.94 72.28-30.28L72.28-30.28L72.28-30.28Q67.79-25.62 66.19-24.02L66.19-24.02L66.19-24.02Q74.59-20.92 75.35-15.88L75.35-15.88L75.35-15.88Q75.43-15.37 75.31-15.20L75.31-15.20L75.31-15.20Q75.18-15.04 74.97-15.20L74.97-15.20L74.97-15.20Q74.76-15.37 74.68-15.71L74.68-15.71L74.68-15.71Q74.00-17.30 69.97-18.23L69.97-18.23L69.97-18.23Q66.36-19.07 61.66-19.49L61.66-19.49L61.66-19.49Q44.60-3.02 31.50 1.43L31.50 1.43L31.50 1.43Q24.36 3.95 17.98 3.95L17.98 3.95L17.98 3.95Q6.55 3.95 2.14 0.55L2.14 0.55L2.14 0.55Q-2.27-2.86-2.27-6.97L-2.27-6.97L-2.27-6.97Q-2.27-8.57-1.68-10.25L-1.68-10.25L-1.68-10.25Q0.84-17.14 12.26-21.92ZM54.35-19.82L54.35-19.82L54.35-19.82Q43.18-19.82 30.83-17.47L30.83-17.47L30.83-17.47Q11.84-14.11 6.13-7.48L6.13-7.48L6.13-7.48Q4.37-5.38 4.37-3.53L4.37-3.53L4.37-3.53Q4.37-1.34 6.72 0.42L6.72 0.42L6.72 0.42Q9.49 2.52 16.34 2.52L16.34 2.52L16.34 2.52Q23.18 2.52 31.16 0.25L31.16 0.25L31.16 0.25Q43.09-3.44 59.56-19.66L59.56-19.66L59.56-19.66Q56.95-19.82 54.35-19.82ZM110.88-3.86L110.88-3.86L110.88-3.86Q109.28 0.50 109.28 3.28L109.28 3.28L109.28 3.28Q109.28 6.05 110.46 7.48L110.46 7.48L110.46 7.48Q110.71 7.81 110.54 7.94L110.54 7.94L110.54 7.94Q110.38 8.06 110.29 8.06L110.29 8.06L110.29 8.06Q110.21 8.06 110.04 7.98L110.04 7.98L110.04 7.98Q107.35 5.80 107.35 1.47L107.35 1.47L107.35 1.47Q107.35-2.86 109.12-8.48L109.12-8.48L109.12-8.48Q105.67-4.03 102.31-1.18L102.31-1.18L102.31-1.18Q98.28 2.18 94.08 2.18L94.08 2.18L94.08 2.18Q91.39 2.18 89.04 0.38L89.04 0.38L89.04 0.38Q86.69-1.43 86.69-5.54L86.69-5.54L86.69-5.54Q86.60-7.56 87.44-10.16L87.44-10.16L87.44-10.16Q85.76-8.65 85.30-8.32L85.30-8.32L85.30-8.32Q84.84-7.98 84.67-8.32L84.67-8.32L84.67-8.32Q84.50-8.65 84.50-8.95L84.50-8.95L84.50-8.95Q84.50-9.24 85.05-9.70L85.05-9.70L85.05-9.70Q85.60-10.16 90.89-15.88L90.89-15.88L90.89-15.88Q94.00-19.32 98.28-21.25L98.28-21.25L98.28-21.25Q102.56-23.18 106.43-23.18L106.43-23.18L106.43-23.18Q109.96-23.18 111.59-21.97L111.59-21.97L111.59-21.97Q113.23-20.75 113.23-18.90L113.23-18.90L113.23-18.90Q116.26-25.28 119.74-31.04L119.74-31.04L119.74-31.04Q123.23-36.79 125.16-38.98L125.16-38.98L125.16-38.98Q127.26-41.33 130.45-41.33L130.45-41.33L130.45-41.33Q133.64-41.33 135.66-39.56L135.66-39.56L135.66-39.56Q133.90-38.47 128.77-32.34L128.77-32.34L128.77-32.34Q123.65-26.21 118.78-19.19L118.78-19.19L118.78-19.19Q113.90-12.18 110.88-3.86ZM111.55-19.74L111.55-19.74L111.55-19.74Q111.55-21.42 109.45-21.42L109.45-21.42L109.45-21.42Q108.36-21.42 106.60-20.75L106.60-20.75L106.60-20.75Q102.65-19.24 98.78-14.87L98.78-14.87L98.78-14.87Q94.00-9.41 94.00-4.45L94.00-4.45L94.00-4.45Q94.00-1.51 95.93-0.92L95.93-0.92L95.93-0.92Q96.35-0.76 96.77-0.76L96.77-0.76L96.77-0.76Q100.21-0.76 107.02-7.64L107.02-7.64L107.02-7.64Q108.86-9.41 110.12-11.42L110.12-11.42L110.12-11.42Q110.80-13.36 111.89-15.88L111.89-15.88L111.89-15.88Q111.13-15.37 110.67-15.75L110.67-15.75L110.67-15.75Q110.21-16.13 110.88-17.43L110.88-17.43L110.88-17.43Q111.55-18.73 111.55-19.74ZM139.19-13.10L139.19-13.10L139.19-13.10Q143.64-15.54 143.64-18.06L143.64-18.06L143.64-18.06Q143.64-20.58 140.62-20.58L140.62-20.58L140.62-20.58Q139.19-20.58 137.59-19.82L137.59-19.82L137.59-19.82Q134.06-18.23 130.79-14.28L130.79-14.28L130.79-14.28Q126.76-9.41 126.76-5.21L126.76-5.21L126.76-5.21Q126.76-3.61 127.64-2.23L127.64-2.23L127.64-2.23Q128.52-0.84 130.79-0.84L130.79-0.84L130.79-0.84Q134.74-0.84 140.78-5.00L140.78-5.00L140.78-5.00Q146.83-9.16 151.20-13.36L151.20-13.36L151.20-13.36Q152.21-14.36 152.21-13.44L152.21-13.44L152.21-13.44Q152.21-12.85 151.70-12.43L151.70-12.43L151.70-12.43Q148.60-9.58 147.55-8.61L147.55-8.61L147.55-8.61Q146.50-7.64 143.39-5.17L143.39-5.17L143.39-5.17Q140.28-2.69 138.35-1.68L138.35-1.68L138.35-1.68Q132.38 1.43 128.23 1.43L128.23 1.43L128.23 1.43Q124.07 1.43 121.67-0.46L121.67-0.46L121.67-0.46Q119.28-2.35 119.28-5.71L119.28-5.71L119.28-5.71Q119.28-12.85 125.66-18.02L125.66-18.02L125.66-18.02Q132.05-23.18 139.02-23.18L139.02-23.18L139.02-23.18Q143.72-23.18 145.32-21.17L145.32-21.17L145.32-21.17Q145.99-20.16 145.99-19.03L145.99-19.03L145.99-19.03Q145.99-17.89 145.24-16.55L145.24-16.55L145.24-16.55Q143.72-13.94 139.57-11.97L139.57-11.97L139.57-11.97Q135.41-10.00 131.71-10.00L131.71-10.00L131.71-10.00Q130.28-10.00 130.16-10.25L130.16-10.25L130.16-10.25Q130.03-10.50 130.37-10.63L130.37-10.63L130.37-10.63Q130.70-10.75 131.29-10.75L131.29-10.75L131.29-10.75Q134.65-10.75 139.19-13.10ZM170.86-18.82L170.86-18.82L170.86-18.82Q172.03-20.16 172.03-20.92L172.03-20.92L172.03-20.92Q172.03-21.67 170.48-21.67L170.48-21.67L170.48-21.67Q168.92-21.67 165.56-18.73L165.56-18.73L165.56-18.73Q162.46-16.04 158.05-9.74L158.05-9.74L158.05-9.74Q153.64-3.44 151.66-1.22L151.66-1.22L151.66-1.22Q149.69 1.01 148.18 1.01L148.18 1.01L148.18 1.01Q148.01 1.01 147.84 1.01L147.84 1.01L147.84 1.01Q145.66 1.01 143.56-0.76L143.56-0.76L143.56-0.76Q144.06-1.51 145.99-4.03L145.99-4.03L145.99-4.03Q150.28-9.24 153.47-14.11L153.47-14.11L153.47-14.11Q149.86-10.50 147.34-8.48L147.34-8.48L147.34-8.48Q146.50-7.81 146.37-8.40L146.37-8.40L146.37-8.40Q146.24-8.99 146.75-9.45L146.75-9.45L146.75-9.45Q147.25-9.91 148.43-10.96L148.43-10.96L148.43-10.96Q149.60-12.01 149.98-12.35L149.98-12.35L149.98-12.35Q150.36-12.68 151.41-13.65L151.41-13.65L151.41-13.65Q152.46-14.62 152.96-15.20L152.96-15.20L152.96-15.20Q155.32-17.98 156.41-19.91L156.41-19.91L156.41-19.91Q156.83-20.92 156.79-21.88L156.79-21.88L156.79-21.88Q156.74-22.85 156.37-23.14L156.37-23.14L156.37-23.14Q155.99-23.44 156.07-23.86L156.07-23.86L156.07-23.86Q156.07-24.53 156.74-24.53L156.74-24.53L156.74-24.53Q157.08-24.53 157.50-24.36L157.50-24.36L157.50-24.36Q160.10-23.18 160.10-19.70L160.10-19.70L160.10-19.70Q160.10-16.21 158.59-12.26L158.59-12.26L158.59-12.26Q161.87-16.55 163.55-18.40L163.55-18.40L163.55-18.40Q167.92-23.27 172.12-23.27L172.12-23.27L172.12-23.27Q176.23-23.27 176.99-19.74L176.99-19.74L176.99-19.74Q177.07-19.24 177.07-18.19L177.07-18.19L177.07-18.19Q177.07-17.14 176.27-15.37L176.27-15.37L176.27-15.37Q175.48-13.61 172.54-9.58L172.54-9.58L172.54-9.58Q169.60-5.54 169.13-4.49L169.13-4.49L169.13-4.49Q168.67-3.44 168.84-2.94L168.84-2.94L168.84-2.94Q169.01-2.44 169.60-2.35L169.60-2.35L169.60-2.35Q170.60-2.18 173.04-3.70L173.04-3.70L173.04-3.70Q176.48-6.13 181.94-11.17L181.94-11.17L181.94-11.17Q182.87-12.10 182.87-11.00L182.87-11.00L182.87-11.00Q182.87-10.58 182.45-10.16L182.45-10.16L182.45-10.16Q174.30-2.60 170.35-0.76L170.35-0.76L170.35-0.76Q165.73 1.60 163.13 0L163.13 0L163.13 0Q161.53-1.01 161.53-2.81L161.53-2.81L161.53-2.81Q161.53-4.62 162.20-6.47L162.20-6.47L162.20-6.47Q163.72-10.75 170.86-18.82ZM202.61 3.11L202.61 3.11L202.61 3.11Q202.61-0.92 214.70-18.56L214.70-18.56L214.70-18.56Q214.28-20.08 214.28-21.34L214.28-21.34L214.28-21.34Q214.28-22.60 216.38-24.28L216.38-24.28L216.38-24.28Q218.48-25.96 219.58-25.96L219.58-25.96L219.58-25.96Q219.74-25.96 219.83-25.96L219.83-25.96L219.83-25.96Q224.78-32.76 228.65-37.46L228.65-37.46L228.65-37.46Q232.51-42.17 233.18-42.17L233.18-42.17L233.18-42.17Q233.86-42.17 234.23-41.62L234.23-41.62L234.23-41.62Q234.61-41.08 234.61-40.49L234.61-40.49L234.61-40.49Q227.89-32.17 220.84-22.51L220.84-22.51L221.00-21.92L224.03-22.18L224.03-22.18Q230.41-22.60 237.89-25.07L237.89-25.07L237.89-25.07Q245.36-27.55 250.15-30.74L250.15-30.74L250.15-30.74Q260.06-37.46 260.06-43.09L260.06-43.09L260.06-43.09Q260.06-45.53 256.79-47.21L256.79-47.21L256.79-47.21Q253.51-48.89 246.54-48.89L246.54-48.89L246.54-48.89Q239.57-48.89 227.60-45.49L227.60-45.49L227.60-45.49Q215.63-42.08 210.92-38.05L210.92-38.05L210.92-38.05Q209.58-36.88 209.96-36.20L209.96-36.20L209.96-36.20Q210.34-35.53 210.08-35.45L210.08-35.45L210.08-35.45Q209.83-35.36 209.33-35.70L209.33-35.70L209.33-35.70Q207.56-36.71 207.10-38.22L207.10-38.22L207.10-38.22Q206.64-39.73 206.64-40.49L206.64-40.49L206.64-40.49Q206.64-41.24 207.06-41.58L207.06-41.58L207.06-41.58Q209.83-45.61 219.45-49.18L219.45-49.18L219.45-49.18Q229.07-52.75 237.22-53.89L237.22-53.89L237.22-53.89Q245.36-55.02 249.27-55.02L249.27-55.02L249.27-55.02Q253.18-55.02 255.74-54.52L255.74-54.52L255.74-54.52Q258.30-54.01 260.32-52.25L260.32-52.25L260.32-52.25Q263.42-49.64 263.42-44.94L263.42-44.94L263.42-44.94Q263.42-40.32 259.98-36.37L259.98-36.37L259.98-36.37Q256.54-32.42 251.12-29.27L251.12-29.27L251.12-29.27Q245.70-26.12 237.97-23.60L237.97-23.60L237.97-23.60Q228.98-20.66 221.42-20.66L221.42-20.66L221.42-20.66Q224.11-13.94 232.22-7.10L232.22-7.10L232.22-7.10Q240.32-0.25 245.62-0.25L245.62-0.25L245.62-0.25Q247.72-0.25 249.31-1.26L249.31-1.26L249.31-1.26Q250.91-2.27 251.16-3.78L251.16-3.78L251.16-3.78Q251.16-4.20 251.58-4.03L251.58-4.03L251.58-4.03Q251.75-3.78 251.75-3.61L251.75-3.61L251.75-3.61Q251.08 2.02 242.17 2.02L242.17 2.02L242.17 2.02Q237.05 2.02 231.50-0.67L231.50-0.67L231.50-0.67Q225.96-3.36 222.05-7.39L222.05-7.39L222.05-7.39Q218.15-11.42 215.88-15.71L215.88-15.71L215.88-15.71Q206.98-2.77 204.88 2.52L204.88 2.52L204.88 2.52Q204.37 3.86 203.49 3.86L203.49 3.86L203.49 3.86Q202.61 3.86 202.61 3.11ZM284.00-12.94L284.00-12.94L284.00-12.94Q283.08-11.84 282.11-10.58L282.11-10.58L282.11-10.58Q281.15-9.32 279.68-7.14L279.68-7.14L279.68-7.14Q278.21-4.96 278.21-3.44L278.21-3.44L278.21-3.44Q278.21-1.93 279.51-1.93L279.51-1.93L279.51-1.93Q280.81-1.93 283.75-3.53L283.75-3.53L283.75-3.53Q289.63-6.89 296.77-13.61L296.77-13.61L296.77-13.61Q297.61-14.45 297.86-13.86L297.86-13.86L297.86-13.86Q297.86-13.78 297.86-13.52L297.86-13.52L297.86-13.52Q297.86-13.27 297.53-12.94L297.53-12.94L297.53-12.94Q283.08 0.67 276.53 0.67L276.53 0.67L276.53 0.67Q274.60 0.67 273.29-0.63L273.29-0.63L273.29-0.63Q271.99-1.93 271.99-3.70L271.99-3.70L271.99-3.70Q271.99-5.46 273.50-9.07L273.50-9.07L273.50-9.07Q269.72-4.37 265.40-1.81L265.40-1.81L265.40-1.81Q261.07 0.76 258.64 0.76L258.64 0.76L258.64 0.76Q256.20 0.76 254.48-0.71L254.48-0.71L254.48-0.71Q252.76-2.18 252.76-4.37L252.76-4.37L252.76-4.37Q252.76-10.58 258.30-16.55L258.30-16.55L258.30-16.55Q262.50-21 268.72-22.85L268.72-22.85L268.72-22.85Q271.49-23.77 274.13-23.77L274.13-23.77L274.13-23.77Q276.78-23.77 279.26-22.30L279.26-22.30L279.26-22.30Q281.74-20.83 282.41-18.82L282.41-18.82L282.41-18.82Q284.93-18.82 286.02-16.97L286.02-16.97L286.02-16.97Q286.19-16.72 286.19-16.13L286.19-16.13L286.19-16.13Q286.19-15.54 285.56-14.78L285.56-14.78L285.56-14.78Q284.93-14.03 284.00-12.94ZM277.87-21.25L277.87-21.25L277.87-21.25Q276.11-21.25 273.67-20.16L273.67-20.16L273.67-20.16Q269.39-18.31 265.52-13.78L265.52-13.78L265.52-13.78Q259.39-6.55 259.39-3.19L259.39-3.19L259.39-3.19Q259.39-1.43 260.82-1.43L260.82-1.43L260.82-1.43Q262.00-1.43 264.73-2.94L264.73-2.94L264.73-2.94Q267.46-4.45 271.91-8.90L271.91-8.90L271.91-8.90Q272.16-9.16 273.84-10.75L273.84-10.75L273.84-10.75Q275.52-12.35 276.70-13.52L276.70-13.52L276.70-13.52Q280.64-17.64 280.64-19.45L280.64-19.45L280.64-19.45Q280.64-21.25 277.87-21.25ZM285.85 23.02L285.85 23.02L285.85 23.02Q278.54 23.02 273.71 19.82L273.71 19.82L273.71 19.82Q268.88 16.63 268.88 10.75L268.88 10.75L268.88 10.75Q268.88 10.42 269.14 10.42L269.14 10.42L269.14 10.42Q269.72 10.42 269.89 11.09L269.89 11.09L269.89 11.09Q270.65 15.37 274.01 18.48L274.01 18.48L274.01 18.48Q275.52 19.91 278.17 20.83L278.17 20.83L278.17 20.83Q280.81 21.76 282.58 21.76L282.58 21.76L282.58 21.76Q284.34 21.76 284.84 21.76L284.84 21.76L284.84 21.76Q294.17 21.25 301.14 12.35L301.14 12.35L301.14 12.35Q304.42 8.15 306.94 3.99L306.94 3.99L306.94 3.99Q309.46-0.17 312.40-5.29L312.40-5.29L312.40-5.29Q315.34-10.42 317.35-13.10L317.35-13.10L317.35-13.10Q314.75-10.16 310.80-6.38L310.80-6.38L310.80-6.38Q306.85-2.60 304.00-0.92L304.00-0.92L304.00-0.92Q301.14 0.76 298.70 0.76L298.70 0.76L298.70 0.76Q296.27 0.76 294.55-0.71L294.55-0.71L294.55-0.71Q292.82-2.18 292.82-4.37L292.82-4.37L292.82-4.37Q292.82-10.58 298.37-16.55L298.37-16.55L298.37-16.55Q302.57-21 308.78-22.85L308.78-22.85L308.78-22.85Q311.56-23.77 314.20-23.77L314.20-23.77L314.20-23.77Q316.85-23.77 319.33-22.30L319.33-22.30L319.33-22.30Q321.80-20.83 322.48-18.82L322.48-18.82L322.48-18.82Q323.82-18.82 325.42-17.68L325.42-17.68L325.42-17.68Q327.01-16.55 327.01-16.04L327.01-16.04L327.01-16.04Q327.01-15.54 326.34-15.20L326.34-15.20L326.34-15.20Q323.65-13.86 317.86-3.44L317.86-3.44L317.86-3.44Q312.23 6.55 304.67 14.45L304.67 14.45L304.67 14.45Q300.89 18.40 295.89 20.71L295.89 20.71L295.89 20.71Q290.89 23.02 285.85 23.02ZM298.87-3.36L298.87-3.36L298.87-3.36Q298.87-1.43 300.89-1.43L300.89-1.43L300.89-1.43Q302.48-1.43 304.84-3.19L304.84-3.19L304.84-3.19Q310.55-6.97 316.76-14.20L316.76-14.20L316.76-14.20Q319.62-17.47 319.62-19.32L319.62-19.32L319.62-19.32Q319.62-19.99 319.16-20.54L319.16-20.54L319.16-20.54Q318.70-21.08 317.18-21.08L317.18-21.08L317.18-21.08Q315.67-21.08 312.35-19.32L312.35-19.32L312.35-19.32Q309.04-17.56 305.55-13.99L305.55-13.99L305.55-13.99Q302.06-10.42 300.47-7.60L300.47-7.60L300.47-7.60Q298.87-4.79 298.87-3.36ZM345.16-25.62L345.16-25.62L345.16-25.62Q344.23-26.38 344.40-27.80L344.40-27.80L344.40-27.80Q344.57-29.23 345.91-30.83L345.91-30.83L345.91-30.83Q347.26-32.42 349.52-32.42L349.52-32.42L349.52-32.42Q350.20-32.42 350.95-31.79L350.95-31.79L350.95-31.79Q351.71-31.16 351.54-29.69L351.54-29.69L351.54-29.69Q351.37-28.22 350.20-26.92L350.20-26.92L350.20-26.92Q349.02-25.62 347.55-25.24L347.55-25.24L347.55-25.24Q346.08-24.86 345.16-25.62ZM344.06-21.17L344.06-21.17L344.06-21.17Q340.62-17.64 338.31-12.22L338.31-12.22L338.31-12.22Q336-6.80 336-4.62L336-4.62L336-4.62Q336-2.44 337.72-2.44L337.72-2.44L337.72-2.44Q339.44-2.44 343.43-4.96L343.43-4.96L343.43-4.96Q347.42-7.48 352.55-12.10L352.55-12.10L352.55-12.10Q353.64-13.10 353.64-11.84L353.64-11.84L353.64-11.84Q353.64-11.68 353.47-11.51L353.47-11.51L353.47-11.51Q349.44-7.98 346.67-5.71L346.67-5.71L346.67-5.71Q343.90-3.44 340.07-1.39L340.07-1.39L340.07-1.39Q336.25 0.67 333.82 0.67L333.82 0.67L333.82 0.67Q330.79 0.67 329.32-0.67L329.32-0.67L329.32-0.67Q327.85-2.02 327.85-3.61L327.85-3.61L327.85-3.61Q327.85-6.64 328.94-8.40L328.94-8.40L328.94-8.40Q330.04-10.16 332.64-13.27L332.64-13.27L332.64-13.27Q331.72-12.52 329.74-10.75L329.74-10.75L329.74-10.75Q327.77-8.99 327.01-8.40L327.01-8.40L327.01-8.40Q326.26-7.81 326.26-8.74L326.26-8.74L326.26-8.74Q326.26-9.32 327.60-10.42L327.60-10.42L327.60-10.42Q328.94-11.51 333.44-15.96L333.44-15.96L333.44-15.96Q337.93-20.41 339.57-21.25L339.57-21.25L339.57-21.25Q341.21-22.09 342.26-22.09L342.26-22.09L342.26-22.09Q343.31-22.09 343.81-21.80L343.81-21.80L343.81-21.80Q344.32-21.50 344.06-21.17ZM357.34-3.44L357.34-3.44L357.34-3.44Q357.34-1.18 359.60-1.18L359.60-1.18L359.60-1.18Q360.95-1.18 363.85-2.27L363.85-2.27L363.85-2.27Q366.74-3.36 371.36-7.06L371.36-7.06L371.36-7.06Q375.98-10.75 377.58-12.39L377.58-12.39L377.58-12.39Q379.18-14.03 379.51-13.99L379.51-13.99L379.51-13.99Q379.85-13.94 379.76-13.48L379.76-13.48L379.76-13.48Q379.68-13.02 379.34-12.68L379.34-12.68L379.34-12.68Q372.20-5.38 367.50-2.18L367.50-2.18L367.50-2.18Q362.80 1.01 358.76 1.01L358.76 1.01L358.76 1.01Q355.32 1.01 353.98-0.59L353.98-0.59L353.98-0.59Q352.63-2.18 352.63-4.28L352.63-4.28L352.63-4.28Q352.63-8.06 355.32-13.36L355.32-13.36L355.32-13.36Q350.45-8.15 350.45-10.00L350.45-10.00L350.45-10.00Q350.45-10.33 350.95-10.75L350.95-10.75L350.95-10.75Q354.90-13.94 359.44-19.99L359.44-19.99L359.44-19.99Q367.75-30.83 372.46-39.06L372.46-39.06L372.46-39.06Q373.30-40.66 373.30-41.41L373.30-41.41L373.30-41.41Q373.30-43.18 371.36-42.08L371.36-42.08L371.36-42.08Q369.18-40.99 369.01-41.24L369.01-41.24L369.01-41.24Q368.84-41.50 369.26-41.92L369.26-41.92L369.26-41.92Q371.28-43.43 374.81-44.77L374.81-44.77L374.81-44.77Q378.34-46.12 380.60-46.20L380.60-46.20L380.60-46.20Q384.13-46.20 384.13-44.02L384.13-44.02L384.13-44.02Q384.13-42.76 382.91-40.66L382.91-40.66L382.91-40.66Q381.70-38.56 375.94-32.30L375.94-32.30L375.94-32.30Q370.19-26.04 368.93-24.44L368.93-24.44L368.93-24.44Q360.28-13.10 357.92-6.38L357.92-6.38L357.92-6.38Q357.34-4.62 357.34-3.44ZM427.98 1.68L427.98 1.68L427.98 1.68Q427.64 1.68 427.64 1.01L427.64 1.01L427.64 1.01Q427.64-0.17 432.35-6.05L432.35-6.05L432.35-6.05Q433.02-6.89 437.81-12.68L437.81-12.68L437.81-12.68Q442.60-18.48 444.44-20.83L444.44-20.83L444.44-20.83Q451.33-29.74 453.64-34.36L453.64-34.36L453.64-34.36Q455.95-38.98 455.95-42L455.95-42L455.95-42Q455.95-48.89 444.53-48.89L444.53-48.89L444.53-48.89Q432.43-48.89 413.11-42.34L413.11-42.34L413.11-42.34Q399.59-37.72 399.59-33.77L399.59-33.77L399.59-33.77Q399.59-32.34 401.52-31.00L401.52-31.00L401.52-31.00Q402.11-30.66 401.48-30.62L401.48-30.62L401.48-30.62Q400.85-30.58 400.43-30.83L400.43-30.83L400.43-30.83Q397.91-32.51 397.91-35.20L397.91-35.20L397.91-35.20Q397.91-37.88 399.46-40.53L399.46-40.53L399.46-40.53Q401.02-43.18 404.54-45.11L404.54-45.11L404.54-45.11Q412.61-49.73 423.86-52.58L423.86-52.58L423.86-52.58Q435.96-55.69 446.46-55.69L446.46-55.69L446.46-55.69Q457.55-55.69 460.74-51.58L460.74-51.58L460.74-51.58Q462.84-48.97 462.84-46.41L462.84-46.41L462.84-46.41Q462.84-43.85 461.83-41.33L461.83-41.33L461.83-41.33Q459.98-36.20 455.87-31.25L455.87-31.25L455.87-31.25Q455.03-30.16 450.20-24.49L450.20-24.49L450.20-24.49Q445.37-18.82 442.68-15.46L442.68-15.46L442.68-15.46Q473.00-47.38 485.35-47.38L485.35-47.38L485.35-47.38Q488.88-47.38 490.39-44.35L490.39-44.35L490.39-44.35Q491.23-42.67 491.23-41.41L491.23-41.41L491.23-41.41Q491.23-40.15 491.06-38.56L491.06-38.56L491.06-38.56Q490.81-34.36 484.01-22.85L484.01-22.85L484.01-22.85Q494.26-33.52 502.32-39.48L502.32-39.48L502.32-39.48Q512.06-46.70 518.95-46.70L518.95-46.70L518.95-46.70Q522.90-46.70 522.90-43.39L522.90-43.39L522.90-43.39Q522.90-40.07 518.70-33.85L518.70-33.85L518.70-33.85Q493.92 2.52 493.92 14.53L493.92 14.53L493.92 14.53Q493.92 18.31 496.10 18.65L496.10 18.65L496.10 18.65Q497.45 18.90 498.96 17.81L498.96 17.81L498.96 17.81Q499.55 17.39 499.97 17.93L499.97 17.93L499.97 17.93Q500.39 18.48 499.63 19.19L499.63 19.19L499.63 19.19Q498.88 19.91 497.87 19.91L497.87 19.91L497.87 19.91Q496.86 19.91 495.52 19.74L495.52 19.74L495.52 19.74Q494.17 19.57 491.99 18.69L491.99 18.69L491.99 18.69Q489.80 17.81 488.33 15.75L488.33 15.75L488.33 15.75Q486.86 13.69 486.86 11.17L486.86 11.17L486.86 11.17Q486.86 7.56 487.79 4.70L487.79 4.70L487.79 4.70Q490.06-1.93 509.04-28.39L509.04-28.39L509.04-28.39Q514.75-36.37 514.75-39.82L514.75-39.82L514.75-39.82Q514.75-42.42 512.06-42.42L512.06-42.42L512.06-42.42Q508.45-42.42 503.58-38.72L503.58-38.72L503.58-38.72Q493.16-30.83 480.31-16.72L480.31-16.72L480.31-16.72Q476.78-11.00 471.58-3.36L471.58-3.36L471.58-3.36Q470.82-2.27 469.81-2.27L469.81-2.27L469.81-2.27Q466.45-2.27 466.45-3.78L466.45-3.78L466.45-3.78Q466.45-4.12 466.62-4.45L466.62-4.45L466.62-4.45Q480.56-28.64 482.24-35.45L482.24-35.45L482.24-35.45Q482.75-37.80 482.75-39.10L482.75-39.10L482.75-39.10Q482.75-40.40 482.66-41.16L482.66-41.16L482.66-41.16Q482.08-43.60 479.64-43.60L479.64-43.60L479.64-43.60Q477.20-43.60 473.00-40.82L473.00-40.82L473.00-40.82Q465.78-36.20 455.11-25.96L455.11-25.96L455.11-25.96Q444.44-15.71 434.62-4.70L434.62-4.70L434.62-4.70Q434.36-4.45 434.03-4.45L434.03-4.45L434.03-4.45Q429.16 1.68 427.98 1.68ZM540.20-12.94L540.20-12.94L540.20-12.94Q539.28-11.84 538.31-10.58L538.31-10.58L538.31-10.58Q537.35-9.32 535.88-7.14L535.88-7.14L535.88-7.14Q534.41-4.96 534.41-3.44L534.41-3.44L534.41-3.44Q534.41-1.93 535.71-1.93L535.71-1.93L535.71-1.93Q537.01-1.93 539.95-3.53L539.95-3.53L539.95-3.53Q545.83-6.89 552.97-13.61L552.97-13.61L552.97-13.61Q553.81-14.45 554.06-13.86L554.06-13.86L554.06-13.86Q554.06-13.78 554.06-13.52L554.06-13.52L554.06-13.52Q554.06-13.27 553.73-12.94L553.73-12.94L553.73-12.94Q539.28 0.67 532.73 0.67L532.73 0.67L532.73 0.67Q530.80 0.67 529.49-0.63L529.49-0.63L529.49-0.63Q528.19-1.93 528.19-3.70L528.19-3.70L528.19-3.70Q528.19-5.46 529.70-9.07L529.70-9.07L529.70-9.07Q525.92-4.37 521.60-1.81L521.60-1.81L521.60-1.81Q517.27 0.76 514.84 0.76L514.84 0.76L514.84 0.76Q512.40 0.76 510.68-0.71L510.68-0.71L510.68-0.71Q508.96-2.18 508.96-4.37L508.96-4.37L508.96-4.37Q508.96-10.58 514.50-16.55L514.50-16.55L514.50-16.55Q518.70-21 524.92-22.85L524.92-22.85L524.92-22.85Q527.69-23.77 530.33-23.77L530.33-23.77L530.33-23.77Q532.98-23.77 535.46-22.30L535.46-22.30L535.46-22.30Q537.94-20.83 538.61-18.82L538.61-18.82L538.61-18.82Q541.13-18.82 542.22-16.97L542.22-16.97L542.22-16.97Q542.39-16.72 542.39-16.13L542.39-16.13L542.39-16.13Q542.39-15.54 541.76-14.78L541.76-14.78L541.76-14.78Q541.13-14.03 540.20-12.94ZM534.07-21.25L534.07-21.25L534.07-21.25Q532.31-21.25 529.87-20.16L529.87-20.16L529.87-20.16Q525.59-18.31 521.72-13.78L521.72-13.78L521.72-13.78Q515.59-6.55 515.59-3.19L515.59-3.19L515.59-3.19Q515.59-1.43 517.02-1.43L517.02-1.43L517.02-1.43Q518.20-1.43 520.93-2.94L520.93-2.94L520.93-2.94Q523.66-4.45 528.11-8.90L528.11-8.90L528.11-8.90Q528.36-9.16 530.04-10.75L530.04-10.75L530.04-10.75Q531.72-12.35 532.90-13.52L532.90-13.52L532.90-13.52Q536.84-17.64 536.84-19.45L536.84-19.45L536.84-19.45Q536.84-21.25 534.07-21.25ZM544.99-4.62L544.99-4.62L544.99-4.62Q544.91-4.70 544.91-4.87L544.91-4.87L544.91-4.87Q544.91-5.04 545.20-5.04L545.20-5.04L545.20-5.04Q545.50-5.04 545.58-4.70L545.58-4.70L545.58-4.70Q547.09-1.34 550.54-1.34L550.54-1.34L550.54-1.34Q554.82-1.34 558.01-5.54L558.01-5.54L558.01-5.54Q560.36-8.65 562.17-12.05L562.17-12.05L562.17-12.05Q563.98-15.46 565.19-17.47L565.19-17.47L565.19-17.47Q566.41-19.49 568.97-22.01L568.97-22.01L568.97-22.01Q571.54-24.53 573.64-25.12L573.64-25.12L573.64-25.12Q573.13-25.37 571.96-25.37L571.96-25.37L571.96-25.37Q570.78-25.37 567.55-23.65L567.55-23.65L567.55-23.65Q564.31-21.92 561.12-19.28L561.12-19.28L561.12-19.28Q557.93-16.63 554.23-13.27L554.23-13.27L554.23-13.27Q550.54-9.91 549.78-9.32L549.78-9.32L549.78-9.32Q549.02-8.74 548.86-9.32L548.86-9.32L548.86-9.32Q548.69-9.91 549.28-10.42L549.28-10.42L549.28-10.42Q551.46-12.26 555.58-16.17L555.58-16.17L555.58-16.17Q559.69-20.08 561.83-21.88L561.83-21.88L561.83-21.88Q563.98-23.69 566.66-24.99L566.66-24.99L566.66-24.99Q569.35-26.29 570.70-26.29L570.70-26.29L570.70-26.29Q574.06-26.29 574.81-25.12L574.81-25.12L574.81-25.12Q572.63-24.19 571.24-20.24L571.24-20.24L571.24-20.24Q569.86-16.30 568.13-11.09L568.13-11.09L568.13-11.09Q566.41-5.88 563.81-2.94L563.81-2.94L563.81-2.94Q565.99-3.78 570.57-6.85L570.57-6.85L570.57-6.85Q575.15-9.91 578.68-13.52L578.68-13.52L578.68-13.52Q579.43-14.20 579.77-13.69L579.77-13.69L579.77-13.69Q579.77-13.52 579.77-13.31L579.77-13.31L579.77-13.31Q579.77-13.10 578.17-11.51L578.17-11.51L578.17-11.51Q576.58-9.91 574.27-7.94L574.27-7.94L574.27-7.94Q571.96-5.96 568.51-3.53L568.51-3.53L568.51-3.53Q561.37 1.51 554.19 1.51L554.19 1.51L554.19 1.51Q547.01 1.51 544.99-4.62ZM598.75-16.80L598.75-16.80L598.75-16.80Q595.06-12.52 592.75-8.95L592.75-8.95L592.75-8.95Q590.44-5.38 590.44-3.91L590.44-3.91L590.44-3.91Q590.44-2.44 592.16-2.44L592.16-2.44L592.16-2.44Q593.88-2.44 599.21-5.88L599.21-5.88L599.21-5.88Q604.55-9.32 609.08-13.61L609.08-13.61L609.08-13.61Q609.50-14.03 609.84-13.94L609.84-13.94L609.84-13.94Q610.18-13.86 610.18-13.52L610.18-13.52L610.18-13.52Q610.18-13.19 609.84-12.77L609.84-12.77L609.84-12.77Q599.00-2.86 593.29-0.34L593.29-0.34L593.29-0.34Q590.77 0.67 589.68 0.67L589.68 0.67L589.68 0.67Q585.65 0.67 584.18-0.67L584.18-0.67L584.18-0.67Q582.71-2.02 582.71-3.61L582.71-3.61L582.71-3.61Q582.71-6.80 583.97-8.48L583.97-8.48L583.97-8.48Q588.08-14.28 590.52-18.31L590.52-18.31L590.52-18.31Q591.28-19.49 590.23-19.95L590.23-19.95L590.23-19.95Q589.18-20.41 587.62-20.41L587.62-20.41L587.62-20.41Q586.07-20.41 585.98-20.50L585.98-20.50L585.98-20.50Q580.36-12.94 574.81-8.57L574.81-8.57L574.81-8.57Q574.14-7.98 574.06-8.57L574.06-8.57L574.06-8.57Q574.06-9.24 574.98-10.16L574.98-10.16L574.98-10.16Q580.86-15.20 584.64-20.83L584.64-20.83L584.64-20.83Q583.88-21.34 583.88-22.22L583.88-22.22L583.88-22.22Q583.88-23.10 584.01-24.36L584.01-24.36L584.01-24.36Q584.14-25.62 585.31-27.72L585.31-27.72L585.31-27.72Q587.33-31.25 589.51-31.25L589.51-31.25L589.51-31.25Q591.36-31.25 591.36-29.23L591.36-29.23L591.36-29.23Q591.36-26.46 588.76-23.18L588.76-23.18L588.76-23.18Q587.50-21.67 586.40-21L586.40-21L586.40-21Q589.51-22.01 595.48-22.01L595.48-22.01L595.48-22.01Q598.42-22.01 599.68-19.82L599.68-19.82L599.68-19.82Q599.84-19.49 599.84-18.82L599.84-18.82L599.84-18.82Q599.84-18.14 598.75-16.80ZM625.55-13.10L625.55-13.10L625.55-13.10Q630-15.54 630-18.06L630-18.06L630-18.06Q630-20.58 626.98-20.58L626.98-20.58L626.98-20.58Q625.55-20.58 623.95-19.82L623.95-19.82L623.95-19.82Q620.42-18.23 617.15-14.28L617.15-14.28L617.15-14.28Q613.12-9.41 613.12-5.21L613.12-5.21L613.12-5.21Q613.12-3.61 614.00-2.23L614.00-2.23L614.00-2.23Q614.88-0.84 617.15-0.84L617.15-0.84L617.15-0.84Q621.10-0.84 627.14-5.00L627.14-5.00L627.14-5.00Q633.19-9.16 637.56-13.36L637.56-13.36L637.56-13.36Q638.57-14.36 638.57-13.44L638.57-13.44L638.57-13.44Q638.57-12.85 638.06-12.43L638.06-12.43L638.06-12.43Q634.96-9.58 633.91-8.61L633.91-8.61L633.91-8.61Q632.86-7.64 629.75-5.17L629.75-5.17L629.75-5.17Q626.64-2.69 624.71-1.68L624.71-1.68L624.71-1.68Q618.74 1.43 614.59 1.43L614.59 1.43L614.59 1.43Q610.43 1.43 608.03-0.46L608.03-0.46L608.03-0.46Q605.64-2.35 605.64-5.71L605.64-5.71L605.64-5.71Q605.64-12.85 612.02-18.02L612.02-18.02L612.02-18.02Q618.41-23.18 625.38-23.18L625.38-23.18L625.38-23.18Q630.08-23.18 631.68-21.17L631.68-21.17L631.68-21.17Q632.35-20.16 632.35-19.03L632.35-19.03L632.35-19.03Q632.35-17.89 631.60-16.55L631.60-16.55L631.60-16.55Q630.08-13.94 625.93-11.97L625.93-11.97L625.93-11.97Q621.77-10.00 618.07-10.00L618.07-10.00L618.07-10.00Q616.64-10.00 616.52-10.25L616.52-10.25L616.52-10.25Q616.39-10.50 616.73-10.63L616.73-10.63L616.73-10.63Q617.06-10.75 617.65-10.75L617.65-10.75L617.65-10.75Q621.01-10.75 625.55-13.10ZM657.22-18.82L657.22-18.82L657.22-18.82Q658.39-20.16 658.39-20.92L658.39-20.92L658.39-20.92Q658.39-21.67 656.84-21.67L656.84-21.67L656.84-21.67Q655.28-21.67 651.92-18.73L651.92-18.73L651.92-18.73Q648.82-16.04 644.41-9.74L644.41-9.74L644.41-9.74Q640.00-3.44 638.02-1.22L638.02-1.22L638.02-1.22Q636.05 1.01 634.54 1.01L634.54 1.01L634.54 1.01Q634.37 1.01 634.20 1.01L634.20 1.01L634.20 1.01Q632.02 1.01 629.92-0.76L629.92-0.76L629.92-0.76Q630.42-1.51 632.35-4.03L632.35-4.03L632.35-4.03Q636.64-9.24 639.83-14.11L639.83-14.11L639.83-14.11Q636.22-10.50 633.70-8.48L633.70-8.48L633.70-8.48Q632.86-7.81 632.73-8.40L632.73-8.40L632.73-8.40Q632.60-8.99 633.11-9.45L633.11-9.45L633.11-9.45Q633.61-9.91 634.79-10.96L634.79-10.96L634.79-10.96Q635.96-12.01 636.34-12.35L636.34-12.35L636.34-12.35Q636.72-12.68 637.77-13.65L637.77-13.65L637.77-13.65Q638.82-14.62 639.32-15.20L639.32-15.20L639.32-15.20Q641.68-17.98 642.77-19.91L642.77-19.91L642.77-19.91Q643.19-20.92 643.15-21.88L643.15-21.88L643.15-21.88Q643.10-22.85 642.73-23.14L642.73-23.14L642.73-23.14Q642.35-23.44 642.43-23.86L642.43-23.86L642.43-23.86Q642.43-24.53 643.10-24.53L643.10-24.53L643.10-24.53Q643.44-24.53 643.86-24.36L643.86-24.36L643.86-24.36Q646.46-23.18 646.46-19.70L646.46-19.70L646.46-19.70Q646.46-16.21 644.95-12.26L644.95-12.26L644.95-12.26Q648.23-16.55 649.91-18.40L649.91-18.40L649.91-18.40Q654.28-23.27 658.48-23.27L658.48-23.27L658.48-23.27Q662.59-23.27 663.35-19.74L663.35-19.74L663.35-19.74Q663.43-19.24 663.43-18.19L663.43-18.19L663.43-18.19Q663.43-17.14 662.63-15.37L662.63-15.37L662.63-15.37Q661.84-13.61 658.90-9.58L658.90-9.58L658.90-9.58Q655.96-5.54 655.49-4.49L655.49-4.49L655.49-4.49Q655.03-3.44 655.20-2.94L655.20-2.94L655.20-2.94Q655.37-2.44 655.96-2.35L655.96-2.35L655.96-2.35Q656.96-2.18 659.40-3.70L659.40-3.70L659.40-3.70Q662.84-6.13 668.30-11.17L668.30-11.17L668.30-11.17Q669.23-12.10 669.23-11.00L669.23-11.00L669.23-11.00Q669.23-10.58 668.81-10.16L668.81-10.16L668.81-10.16Q660.66-2.60 656.71-0.76L656.71-0.76L656.71-0.76Q652.09 1.60 649.49 0L649.49 0L649.49 0Q647.89-1.01 647.89-2.81L647.89-2.81L647.89-2.81Q647.89-4.62 648.56-6.47L648.56-6.47L648.56-6.47Q650.08-10.75 657.22-18.82ZM692.16-3.86L692.16-3.86L692.16-3.86Q690.56 0.50 690.56 3.28L690.56 3.28L690.56 3.28Q690.56 6.05 691.74 7.48L691.74 7.48L691.74 7.48Q691.99 7.81 691.82 7.94L691.82 7.94L691.82 7.94Q691.66 8.06 691.57 8.06L691.57 8.06L691.57 8.06Q691.49 8.06 691.32 7.98L691.32 7.98L691.32 7.98Q688.63 5.80 688.63 1.47L688.63 1.47L688.63 1.47Q688.63-2.86 690.40-8.48L690.40-8.48L690.40-8.48Q686.95-4.03 683.59-1.18L683.59-1.18L683.59-1.18Q679.56 2.18 675.36 2.18L675.36 2.18L675.36 2.18Q672.67 2.18 670.32 0.38L670.32 0.38L670.32 0.38Q667.97-1.43 667.97-5.54L667.97-5.54L667.97-5.54Q667.88-7.56 668.72-10.16L668.72-10.16L668.72-10.16Q667.04-8.65 666.58-8.32L666.58-8.32L666.58-8.32Q666.12-7.98 665.95-8.32L665.95-8.32L665.95-8.32Q665.78-8.65 665.78-8.95L665.78-8.95L665.78-8.95Q665.78-9.24 666.33-9.70L666.33-9.70L666.33-9.70Q666.88-10.16 672.17-15.88L672.17-15.88L672.17-15.88Q675.28-19.32 679.56-21.25L679.56-21.25L679.56-21.25Q683.84-23.18 687.71-23.18L687.71-23.18L687.71-23.18Q691.24-23.18 692.87-21.97L692.87-21.97L692.87-21.97Q694.51-20.75 694.51-18.90L694.51-18.90L694.51-18.90Q697.54-25.28 701.02-31.04L701.02-31.04L701.02-31.04Q704.51-36.79 706.44-38.98L706.44-38.98L706.44-38.98Q708.54-41.33 711.73-41.33L711.73-41.33L711.73-41.33Q714.92-41.33 716.94-39.56L716.94-39.56L716.94-39.56Q715.18-38.47 710.05-32.34L710.05-32.34L710.05-32.34Q704.93-26.21 700.06-19.19L700.06-19.19L700.06-19.19Q695.18-12.18 692.16-3.86ZM692.83-19.74L692.83-19.74L692.83-19.74Q692.83-21.42 690.73-21.42L690.73-21.42L690.73-21.42Q689.64-21.42 687.88-20.75L687.88-20.75L687.88-20.75Q683.93-19.24 680.06-14.87L680.06-14.87L680.06-14.87Q675.28-9.41 675.28-4.45L675.28-4.45L675.28-4.45Q675.28-1.51 677.21-0.92L677.21-0.92L677.21-0.92Q677.63-0.76 678.05-0.76L678.05-0.76L678.05-0.76Q681.49-0.76 688.30-7.64L688.30-7.64L688.30-7.64Q690.14-9.41 691.40-11.42L691.40-11.42L691.40-11.42Q692.08-13.36 693.17-15.88L693.17-15.88L693.17-15.88Q692.41-15.37 691.95-15.75L691.95-15.75L691.95-15.75Q691.49-16.13 692.16-17.43L692.16-17.43L692.16-17.43Q692.83-18.73 692.83-19.74ZM724.00-16.80L724.00-16.80L724.00-16.80Q720.30-12.52 717.99-8.95L717.99-8.95L717.99-8.95Q715.68-5.38 715.68-3.91L715.68-3.91L715.68-3.91Q715.68-2.44 717.40-2.44L717.40-2.44L717.40-2.44Q719.12-2.44 724.46-5.88L724.46-5.88L724.46-5.88Q729.79-9.32 734.33-13.61L734.33-13.61L734.33-13.61Q734.75-14.03 735.08-13.94L735.08-13.94L735.08-13.94Q735.42-13.86 735.42-13.52L735.42-13.52L735.42-13.52Q735.42-13.19 735.08-12.77L735.08-12.77L735.08-12.77Q724.25-2.86 718.54-0.34L718.54-0.34L718.54-0.34Q716.02 0.67 714.92 0.67L714.92 0.67L714.92 0.67Q710.89 0.67 709.42-0.67L709.42-0.67L709.42-0.67Q707.95-2.02 707.95-3.61L707.95-3.61L707.95-3.61Q707.95-6.80 709.21-8.48L709.21-8.48L709.21-8.48Q713.33-14.28 715.76-18.31L715.76-18.31L715.76-18.31Q716.52-19.49 715.47-19.95L715.47-19.95L715.47-19.95Q714.42-20.41 712.87-20.41L712.87-20.41L712.87-20.41Q711.31-20.41 711.23-20.50L711.23-20.50L711.23-20.50Q705.60-12.94 700.06-8.57L700.06-8.57L700.06-8.57Q699.38-7.98 699.30-8.57L699.30-8.57L699.30-8.57Q699.30-9.24 700.22-10.16L700.22-10.16L700.22-10.16Q706.10-15.20 709.88-20.83L709.88-20.83L709.88-20.83Q709.13-21.34 709.13-22.22L709.13-22.22L709.13-22.22Q709.13-23.10 709.25-24.36L709.25-24.36L709.25-24.36Q709.38-25.62 710.56-27.72L710.56-27.72L710.56-27.72Q712.57-31.25 714.76-31.25L714.76-31.25L714.76-31.25Q716.60-31.25 716.60-29.23L716.60-29.23L716.60-29.23Q716.60-26.46 714-23.18L714-23.18L714-23.18Q712.74-21.67 711.65-21L711.65-21L711.65-21Q714.76-22.01 720.72-22.01L720.72-22.01L720.72-22.01Q723.66-22.01 724.92-19.82L724.92-19.82L724.92-19.82Q725.09-19.49 725.09-18.82L725.09-18.82L725.09-18.82Q725.09-18.14 724.00-16.80ZM762.05-12.94L762.05-12.94L762.05-12.94Q761.12-11.84 760.16-10.58L760.16-10.58L760.16-10.58Q759.19-9.32 757.72-7.14L757.72-7.14L757.72-7.14Q756.25-4.96 756.25-3.44L756.25-3.44L756.25-3.44Q756.25-1.93 757.55-1.93L757.55-1.93L757.55-1.93Q758.86-1.93 761.80-3.53L761.80-3.53L761.80-3.53Q767.68-6.89 774.82-13.61L774.82-13.61L774.82-13.61Q775.66-14.45 775.91-13.86L775.91-13.86L775.91-13.86Q775.91-13.78 775.91-13.52L775.91-13.52L775.91-13.52Q775.91-13.27 775.57-12.94L775.57-12.94L775.57-12.94Q761.12 0.67 754.57 0.67L754.57 0.67L754.57 0.67Q752.64 0.67 751.34-0.63L751.34-0.63L751.34-0.63Q750.04-1.93 750.04-3.70L750.04-3.70L750.04-3.70Q750.04-5.46 751.55-9.07L751.55-9.07L751.55-9.07Q747.77-4.37 743.44-1.81L743.44-1.81L743.44-1.81Q739.12 0.76 736.68 0.76L736.68 0.76L736.68 0.76Q734.24 0.76 732.52-0.71L732.52-0.71L732.52-0.71Q730.80-2.18 730.80-4.37L730.80-4.37L730.80-4.37Q730.80-10.58 736.34-16.55L736.34-16.55L736.34-16.55Q740.54-21 746.76-22.85L746.76-22.85L746.76-22.85Q749.53-23.77 752.18-23.77L752.18-23.77L752.18-23.77Q754.82-23.77 757.30-22.30L757.30-22.30L757.30-22.30Q759.78-20.83 760.45-18.82L760.45-18.82L760.45-18.82Q762.97-18.82 764.06-16.97L764.06-16.97L764.06-16.97Q764.23-16.72 764.23-16.13L764.23-16.13L764.23-16.13Q764.23-15.54 763.60-14.78L763.60-14.78L763.60-14.78Q762.97-14.03 762.05-12.94ZM755.92-21.25L755.92-21.25L755.92-21.25Q754.15-21.25 751.72-20.16L751.72-20.16L751.72-20.16Q747.43-18.31 743.57-13.78L743.57-13.78L743.57-13.78Q737.44-6.55 737.44-3.19L737.44-3.19L737.44-3.19Q737.44-1.43 738.86-1.43L738.86-1.43L738.86-1.43Q740.04-1.43 742.77-2.94L742.77-2.94L742.77-2.94Q745.50-4.45 749.95-8.90L749.95-8.90L749.95-8.90Q750.20-9.16 751.88-10.75L751.88-10.75L751.88-10.75Q753.56-12.35 754.74-13.52L754.74-13.52L754.74-13.52Q758.69-17.64 758.69-19.45L758.69-19.45L758.69-19.45Q758.69-21.25 755.92-21.25Z" fill="url(#editing-glowing-gradient)"></path></g></g><style>text {
  font-size: 64px;
  font-family: Arial Black;
  dominant-baseline: central;
  text-anchor: middle;
}</style></svg>